<svg width="1695" height="1354" viewBox="0 0 1695 1354" fill="none" xmlns="http://www.w3.org/2000/svg">
<path d="M1016.5 449V448H1016.15L1015.87 448.222L1016.5 449ZM1379.71 449.707C1380.1 449.317 1380.1 448.683 1379.71 448.293L1373.34 441.929C1372.95 441.538 1372.32 441.538 1371.93 441.929C1371.54 442.319 1371.54 442.953 1371.93 443.343L1377.59 449L1371.93 454.657C1371.54 455.047 1371.54 455.681 1371.93 456.071C1372.32 456.462 1372.95 456.462 1373.34 456.071L1379.71 449.707ZM901.5 542L900.871 541.222L900.564 541.471L900.51 541.862L901.5 542ZM1016.5 450H1379V448H1016.5V450ZM895.99 588.638L902.49 542.138L900.51 541.862L894.01 588.362L895.99 588.638ZM902.129 542.778L1017.13 449.778L1015.87 448.222L900.871 541.222L902.129 542.778Z" fill="#7DF9FF"/>
<path d="M1140.5 1002.5L1139.73 1003.14L1140.03 1003.5H1140.5V1002.5ZM1394.71 1003.21C1395.1 1002.82 1395.1 1002.18 1394.71 1001.79L1388.34 995.429C1387.95 995.038 1387.32 995.038 1386.93 995.429C1386.54 995.819 1386.54 996.453 1386.93 996.843L1392.59 1002.5L1386.93 1008.16C1386.54 1008.55 1386.54 1009.18 1386.93 1009.57C1387.32 1009.96 1387.95 1009.96 1388.34 1009.57L1394.71 1003.21ZM1037.23 880.14L1139.73 1003.14L1141.27 1001.86L1038.77 878.86L1037.23 880.14ZM1140.5 1003.5H1394V1001.5H1140.5V1003.5Z" fill="#7DF9FF"/>
<path d="M1221 880.5L1220.6 881.418L1220.79 881.5H1221V880.5ZM1416.71 881.207C1417.1 880.817 1417.1 880.183 1416.71 879.793L1410.34 873.429C1409.95 873.038 1409.32 873.038 1408.93 873.429C1408.54 873.819 1408.54 874.453 1408.93 874.843L1414.59 880.5L1408.93 886.157C1408.54 886.547 1408.54 887.181 1408.93 887.571C1409.32 887.962 1409.95 887.962 1410.34 887.571L1416.71 881.207ZM1043.6 804.918L1220.6 881.418L1221.4 879.582L1044.4 803.082L1043.6 804.918ZM1221 881.5H1416V879.5H1221V881.5Z" fill="#7DF9FF"/>
<path d="M20.5 451L30.5 456.774V445.226L20.5 451ZM29.5 452H706.5V450H29.5V452Z" fill="#7DF9FF"/>
<path d="M21 754L30.8756 759.984L31.12 748.439L21 754ZM422.5 762.5H423.5V761.521L422.521 761.5L422.5 762.5ZM422.5 881.5L423.498 881.56L423.5 881.53V881.5H422.5ZM414.5 1014L413.502 1013.94L413.398 1015.65L414.94 1014.9L414.5 1014ZM29.9768 755.19L422.479 763.5L422.521 761.5L30.0191 753.191L29.9768 755.19ZM421.5 762.5V881.5H423.5V762.5H421.5ZM421.502 881.44L413.502 1013.94L415.498 1014.06L423.498 881.56L421.502 881.44ZM414.94 1014.9L701.44 874.398L700.56 872.602L414.06 1013.1L414.94 1014.9Z" fill="#7DF9FF"/>
<path d="M0 602L10 607.774V596.226L0 602ZM343 602L343.316 601.051L343.162 601H343V602ZM9 603H343V601H9V603ZM342.684 602.949L630.684 698.949L631.316 697.051L343.316 601.051L342.684 602.949Z" fill="#7DF9FF"/>
<path d="M764.5 1135.5L764.444 1136.5L765.25 1136.54L765.464 1135.76L764.5 1135.5ZM294 946.5H295V945.5H294V946.5ZM11.5 946.5L21.5 952.274V940.726L11.5 946.5ZM294 1109H293V1109.95L293.944 1110L294 1109ZM820.536 927.735L763.536 1135.24L765.464 1135.76L822.464 928.265L820.536 927.735ZM294 945.5H20.5V947.5H294V945.5ZM764.556 1134.5L294.056 1108L293.944 1110L764.444 1136.5L764.556 1134.5ZM295 1109V946.5H293V1109H295Z" fill="#7DF9FF"/>
<path d="M1004.5 303.5V302.5H1004.2L1003.95 302.665L1004.5 303.5ZM1433.71 304.207C1434.1 303.817 1434.1 303.183 1433.71 302.793L1427.34 296.429C1426.95 296.038 1426.32 296.038 1425.93 296.429C1425.54 296.819 1425.54 297.453 1425.93 297.843L1431.59 303.5L1425.93 309.157C1425.54 309.547 1425.54 310.181 1425.93 310.571C1426.32 310.962 1426.95 310.962 1427.34 310.571L1433.71 304.207ZM863.5 396.5L862.949 395.665L862.572 395.914L862.51 396.362L863.5 396.5ZM1004.5 304.5H1433V302.5H1004.5V304.5ZM857.99 443.138L864.49 396.638L862.51 396.362L856.01 442.862L857.99 443.138ZM864.051 397.335L1005.05 304.335L1003.95 302.665L862.949 395.665L864.051 397.335Z" fill="#7DF9FF"/>
<path d="M1176 1136L1175.22 1136.62L1175.52 1137H1176V1136ZM1541.71 1136.71C1542.1 1136.32 1542.1 1135.68 1541.71 1135.29L1535.34 1128.93C1534.95 1128.54 1534.32 1128.54 1533.93 1128.93C1533.54 1129.32 1533.54 1129.95 1533.93 1130.34L1539.59 1136L1533.93 1141.66C1533.54 1142.05 1533.54 1142.68 1533.93 1143.07C1534.32 1143.46 1534.95 1143.46 1535.34 1143.07L1541.71 1136.71ZM994.717 909.622L1175.22 1136.62L1176.78 1135.38L996.283 908.378L994.717 909.622ZM1176 1137H1541V1135H1176V1137Z" fill="#7DF9FF"/>
<path d="M1097.5 1250L1096.61 1250.46L1096.9 1251H1097.5V1250ZM1295.71 1250.71C1296.1 1250.32 1296.1 1249.68 1295.71 1249.29L1289.34 1242.93C1288.95 1242.54 1288.32 1242.54 1287.93 1242.93C1287.54 1243.32 1287.54 1243.95 1287.93 1244.34L1293.59 1250L1287.93 1255.66C1287.54 1256.05 1287.54 1256.68 1287.93 1257.07C1288.32 1257.46 1288.95 1257.46 1289.34 1257.07L1295.71 1250.71ZM940.615 953.465L1096.61 1250.46L1098.39 1249.54L942.385 952.535L940.615 953.465ZM1097.5 1251H1295V1249H1097.5V1251Z" fill="#7DF9FF"/>
<g opacity="0.5" filter="url(#filter0_f_380_373)">
<circle cx="819" cy="677" r="359" fill="#7DF9FF"/>
</g>
<path d="M41.96 425V404.98H46.496L60.664 419.372V404.98H65.144V425H60.608L46.44 410.58V425H41.96ZM75.9037 425.14C73.4023 425.14 71.4517 424.524 70.0517 423.292C68.6517 422.041 67.9517 420.212 67.9517 417.804C67.9517 415.377 68.6517 413.548 70.0517 412.316C71.4517 411.065 73.4023 410.44 75.9037 410.44H81.0837C83.585 410.44 85.5357 411.065 86.9357 412.316C88.3357 413.548 89.0357 415.377 89.0357 417.804C89.0357 420.212 88.3357 422.041 86.9357 423.292C85.5357 424.524 83.585 425.14 81.0837 425.14H75.9037ZM75.9037 421.92H81.0837C82.297 421.92 83.221 421.584 83.8557 420.912C84.509 420.24 84.8357 419.204 84.8357 417.804C84.8357 416.385 84.509 415.34 83.8557 414.668C83.221 413.996 82.297 413.66 81.0837 413.66H75.9037C74.6903 413.66 73.757 413.996 73.1037 414.668C72.469 415.34 72.1517 416.385 72.1517 417.804C72.1517 419.204 72.469 420.24 73.1037 420.912C73.757 421.584 74.6903 421.92 75.9037 421.92ZM109.188 425H105.128V404.98H109.188V425ZM108.488 425H98.8284C96.3271 425 94.3764 424.384 92.9764 423.152C91.5764 421.92 90.8764 420.137 90.8764 417.804C90.8764 415.452 91.5764 413.66 92.9764 412.428C94.3764 411.196 96.3271 410.58 98.8284 410.58H108.208V413.8H98.8284C97.6151 413.8 96.6818 414.136 96.0284 414.808C95.3938 415.461 95.0764 416.46 95.0764 417.804C95.0764 419.129 95.3938 420.128 96.0284 420.8C96.6818 421.453 97.6151 421.78 98.8284 421.78H108.488V425ZM111.726 418.448V415.228H120.294V418.448H111.726ZM123.241 425V404.98H140.013C142.085 404.98 143.69 405.503 144.829 406.548C145.986 407.593 146.565 409.18 146.565 411.308C146.565 413.119 146.145 414.537 145.305 415.564C144.465 416.591 143.27 417.235 141.721 417.496L146.341 425H141.245L136.961 417.636H127.721V425H123.241ZM139.481 408.62H127.721V413.968L139.481 413.996C140.302 413.996 140.928 413.791 141.357 413.38C141.805 412.969 142.029 412.279 142.029 411.308C142.029 410.319 141.805 409.628 141.357 409.236C140.928 408.825 140.302 408.62 139.481 408.62ZM156.775 425.14C154.273 425.14 152.323 424.524 150.923 423.292C149.523 422.041 148.823 420.212 148.823 417.804C148.823 415.377 149.523 413.548 150.923 412.316C152.323 411.065 154.273 410.44 156.775 410.44H163.775C165.417 410.44 166.668 410.832 167.527 411.616C168.404 412.381 168.843 413.483 168.843 414.92C168.843 417.851 167.153 419.316 163.775 419.316H153.191C153.583 421.052 154.777 421.92 156.775 421.92H168.115V425.14H156.775ZM156.775 413.66C154.852 413.66 153.667 414.472 153.219 416.096H163.579C163.952 416.096 164.241 415.984 164.447 415.76C164.671 415.536 164.783 415.228 164.783 414.836C164.783 414.052 164.381 413.66 163.579 413.66H156.775ZM171.913 425L170.541 410.58H174.629L175.581 421.528L179.921 419.568V410.58H183.981V419.596L188.321 421.528L189.273 410.58H193.361L191.989 425H188.153L181.937 422.256L175.749 425H171.913ZM199.451 425C197.939 425 196.782 424.617 195.979 423.852C195.176 423.087 194.775 421.995 194.775 420.576C194.775 419.176 195.176 418.093 195.979 417.328C196.782 416.563 197.939 416.18 199.451 416.18H210.203V415.508C210.203 414.369 209.643 413.8 208.523 413.8H196.651V410.58H209.587C211.286 410.58 212.49 410.972 213.199 411.756C213.908 412.521 214.263 413.604 214.263 415.004V425H199.451ZM200.179 421.78H210.203V419.4H200.179C199.824 419.4 199.544 419.512 199.339 419.736C199.152 419.941 199.059 420.221 199.059 420.576C199.059 420.931 199.152 421.22 199.339 421.444C199.544 421.668 199.824 421.78 200.179 421.78ZM217.227 425V410.58H228.259C229.883 410.58 231.078 410.991 231.843 411.812C232.609 412.615 232.991 413.679 232.991 415.004V418H228.875V415.508C228.875 414.388 228.315 413.828 227.195 413.828H221.343V425H217.227ZM253.392 425H249.332V404.98H253.392V425ZM252.692 425H243.032C240.531 425 238.58 424.384 237.18 423.152C235.78 421.92 235.08 420.137 235.08 417.804C235.08 415.452 235.78 413.66 237.18 412.428C238.58 411.196 240.531 410.58 243.032 410.58H252.412V413.8H243.032C241.819 413.8 240.886 414.136 240.232 414.808C239.598 415.461 239.28 416.46 239.28 417.804C239.28 419.129 239.598 420.128 240.232 420.8C240.886 421.453 241.819 421.78 243.032 421.78H252.692V425ZM255.874 425.14V421.92H269.594C270.378 421.92 270.77 421.481 270.77 420.604C270.77 419.745 270.378 419.316 269.594 419.316H260.718C259.057 419.316 257.797 418.943 256.938 418.196C256.08 417.431 255.65 416.339 255.65 414.92C255.65 413.483 256.08 412.381 256.938 411.616C257.816 410.832 259.076 410.44 260.718 410.44H273.486V413.66H260.914C260.112 413.66 259.71 414.052 259.71 414.836C259.71 415.228 259.822 415.536 260.046 415.76C260.27 415.984 260.56 416.096 260.914 416.096H270.322C271.778 416.096 272.889 416.479 273.654 417.244C274.438 417.991 274.83 419.083 274.83 420.52C274.83 421.976 274.438 423.115 273.654 423.936C272.87 424.739 271.76 425.14 270.322 425.14H255.874Z" fill="white"/>
<path d="M39.96 579V558.98H56.732C58.804 558.98 60.4093 559.503 61.548 560.548C62.7053 561.593 63.284 563.18 63.284 565.308C63.284 567.436 62.7053 569.023 61.548 570.068C60.4093 571.113 58.804 571.636 56.732 571.636H44.44V579H39.96ZM56.2 562.62H44.44V567.968L56.2 567.996C57.0213 567.996 57.6467 567.791 58.076 567.38C58.524 566.969 58.748 566.279 58.748 565.308C58.748 564.319 58.524 563.628 58.076 563.236C57.6467 562.825 57.0213 562.62 56.2 562.62ZM76.0553 579.14C72.4899 579.14 69.7273 578.291 67.7673 576.592C65.8073 574.875 64.8273 572.336 64.8273 568.976C64.8273 565.635 65.8073 563.115 67.7673 561.416C69.7273 559.699 72.5553 558.84 76.2513 558.84H81.2913C84.9873 558.84 87.8153 559.699 89.7753 561.416C91.7353 563.115 92.7153 565.635 92.7153 568.976C92.7153 572.336 91.7353 574.875 89.7753 576.592C87.8153 578.291 85.0339 579.14 81.4313 579.14H76.0553ZM76.5593 562.48C74.4873 562.48 72.8726 562.853 71.7153 563.6C70.5579 564.347 69.8299 565.532 69.5313 567.156H88.0113C87.7126 565.532 86.9846 564.347 85.8273 563.6C84.6699 562.853 83.0553 562.48 80.9833 562.48H76.5593ZM76.6433 575.5H80.9833C83.0739 575.5 84.6886 575.127 85.8273 574.38C86.9846 573.633 87.7126 572.439 88.0113 570.796H69.5313C69.8299 572.439 70.5579 573.633 71.7153 574.38C72.8726 575.127 74.5153 575.5 76.6433 575.5ZM95.3799 579V559.036L112.236 558.98C114.457 558.98 116.1 559.447 117.164 560.38C118.247 561.295 118.788 562.676 118.788 564.524C118.788 566.372 118.172 567.725 116.94 568.584C117.761 569.032 118.368 569.629 118.76 570.376C119.152 571.104 119.348 572.047 119.348 573.204C119.348 575.089 118.807 576.527 117.724 577.516C116.66 578.487 115.017 578.972 112.796 578.972L95.3799 579ZM111.704 562.564H99.8599V567.044H111.704C113.403 567.044 114.252 566.279 114.252 564.748C114.252 563.292 113.403 562.564 111.704 562.564ZM112.264 570.628H99.8599V575.388H112.264C113.963 575.388 114.812 574.585 114.812 572.98C114.812 571.412 113.963 570.628 112.264 570.628Z" fill="white"/>
<path d="M40.46 725V704.98H43.764L52.724 704.952C56.3453 704.952 59.1547 705.801 61.152 707.5C63.1493 709.199 64.148 711.691 64.148 714.976C64.148 718.261 63.1493 720.753 61.152 722.452C59.1547 724.151 56.3453 725 52.724 725H40.46ZM52.416 708.592H44.94V721.36H52.416C54.768 721.36 56.5507 720.847 57.764 719.82C58.9773 718.793 59.584 717.179 59.584 714.976C59.584 712.755 58.9773 711.14 57.764 710.132C56.5507 709.105 54.768 708.592 52.416 708.592ZM66.8301 725V704.98H88.7821V708.62H71.3101V713.044H87.1581V716.684H71.3101V721.36H88.7821V725H66.8301ZM98.7796 725L89.7636 704.98H94.6356L102.056 721.5H102.42L109.84 704.98H114.712L105.696 725H98.7796ZM130.23 725C129.092 725 128.14 724.804 127.374 724.412C126.609 724.02 126.03 723.507 125.638 722.872C125.265 722.237 125.078 721.547 125.078 720.8C125.078 720.147 125.228 719.484 125.526 718.812C125.825 718.121 126.264 717.487 126.842 716.908L131.49 712.26C131.266 711.961 131.089 711.625 130.958 711.252C130.828 710.879 130.762 710.449 130.762 709.964C130.762 709.143 130.986 708.349 131.434 707.584C131.901 706.819 132.582 706.193 133.478 705.708C134.393 705.223 135.504 704.98 136.81 704.98H140.982C142.924 704.98 144.417 705.512 145.462 706.576C146.508 707.64 147.03 709.059 147.03 710.832H142.41C142.41 709.357 141.645 708.62 140.114 708.62H137.762C137.072 708.62 136.568 708.779 136.25 709.096C135.933 709.395 135.774 709.74 135.774 710.132C135.774 710.356 135.83 710.589 135.942 710.832C136.073 711.075 136.26 711.299 136.502 711.504L142.914 716.908L146.694 713.128H152.462L146.022 719.54L152.462 725H146.134L143.138 722.424L140.534 725H130.23ZM131.35 721.36H138.462L140.058 719.764L134.514 714.976L130.398 719.064C130.212 719.232 130.081 719.409 130.006 719.596C129.932 719.783 129.894 719.969 129.894 720.156C129.894 720.473 130.016 720.753 130.258 720.996C130.52 721.239 130.884 721.36 131.35 721.36ZM164.528 725V704.98H186.48V708.62H169.008V713.044H184.856V716.684H169.008V721.36H186.48V725H164.528ZM196.394 725.14C193.892 725.14 191.942 724.524 190.542 723.292C189.142 722.041 188.442 720.212 188.442 717.804C188.442 715.377 189.142 713.548 190.542 712.316C191.942 711.065 193.892 710.44 196.394 710.44H205.774V713.66H196.394C195.18 713.66 194.247 713.996 193.594 714.668C192.959 715.34 192.642 716.385 192.642 717.804C192.642 719.204 192.959 720.24 193.594 720.912C194.247 721.584 195.18 721.92 196.394 721.92H206.054V725.14H196.394ZM215.408 725.14C212.907 725.14 210.956 724.524 209.556 723.292C208.156 722.041 207.456 720.212 207.456 717.804C207.456 715.377 208.156 713.548 209.556 712.316C210.956 711.065 212.907 710.44 215.408 710.44H220.588C223.09 710.44 225.04 711.065 226.44 712.316C227.84 713.548 228.54 715.377 228.54 717.804C228.54 720.212 227.84 722.041 226.44 723.292C225.04 724.524 223.09 725.14 220.588 725.14H215.408ZM215.408 721.92H220.588C221.802 721.92 222.726 721.584 223.36 720.912C224.014 720.24 224.34 719.204 224.34 717.804C224.34 716.385 224.014 715.34 223.36 714.668C222.726 713.996 221.802 713.66 220.588 713.66H215.408C214.195 713.66 213.262 713.996 212.608 714.668C211.974 715.34 211.656 716.385 211.656 717.804C211.656 719.204 211.974 720.24 212.608 720.912C213.262 721.584 214.195 721.92 215.408 721.92ZM230.465 725.14V721.92H244.185C244.969 721.92 245.361 721.481 245.361 720.604C245.361 719.745 244.969 719.316 244.185 719.316H235.309C233.648 719.316 232.388 718.943 231.529 718.196C230.67 717.431 230.241 716.339 230.241 714.92C230.241 713.483 230.67 712.381 231.529 711.616C232.406 710.832 233.666 710.44 235.309 710.44H248.077V713.66H235.505C234.702 713.66 234.301 714.052 234.301 714.836C234.301 715.228 234.413 715.536 234.637 715.76C234.861 715.984 235.15 716.096 235.505 716.096H244.913C246.369 716.096 247.48 716.479 248.245 717.244C249.029 717.991 249.421 719.083 249.421 720.52C249.421 721.976 249.029 723.115 248.245 723.936C247.461 724.739 246.35 725.14 244.913 725.14H230.465ZM254.926 731.3V728.08H263.382C264.502 728.08 265.062 727.511 265.062 726.372V725H256.41C254.768 725 253.564 724.589 252.798 723.768C252.052 722.947 251.678 721.883 251.678 720.576V710.58H255.738V720.1C255.738 721.22 256.298 721.78 257.418 721.78H264.922V710.58H269.122V726.876C269.122 728.201 268.74 729.265 267.974 730.068C267.209 730.889 266.014 731.3 264.39 731.3H254.926ZM271.612 725.14V721.92H285.332C286.116 721.92 286.508 721.481 286.508 720.604C286.508 719.745 286.116 719.316 285.332 719.316H276.456C274.794 719.316 273.534 718.943 272.676 718.196C271.817 717.431 271.388 716.339 271.388 714.92C271.388 713.483 271.817 712.381 272.676 711.616C273.553 710.832 274.813 710.44 276.456 710.44H289.224V713.66H276.652C275.849 713.66 275.448 714.052 275.448 714.836C275.448 715.228 275.56 715.536 275.784 715.76C276.008 715.984 276.297 716.096 276.652 716.096H286.06C287.516 716.096 288.626 716.479 289.392 717.244C290.176 717.991 290.568 719.083 290.568 720.52C290.568 721.976 290.176 723.115 289.392 723.936C288.608 724.739 287.497 725.14 286.06 725.14H271.612ZM300.329 725C298.705 725 297.51 724.599 296.745 723.796C295.98 722.975 295.597 721.901 295.597 720.576V713.8H291.425V710.58H295.597V706.156H299.657V710.58H305.649V713.8H299.657V720.072C299.657 721.211 300.217 721.78 301.337 721.78H306.433V725H300.329ZM315.786 725.14C313.285 725.14 311.334 724.524 309.934 723.292C308.534 722.041 307.834 720.212 307.834 717.804C307.834 715.377 308.534 713.548 309.934 712.316C311.334 711.065 313.285 710.44 315.786 710.44H322.786C324.429 710.44 325.68 710.832 326.538 711.616C327.416 712.381 327.854 713.483 327.854 714.92C327.854 717.851 326.165 719.316 322.786 719.316H312.202C312.594 721.052 313.789 721.92 315.786 721.92H327.126V725.14H315.786ZM315.786 713.66C313.864 713.66 312.678 714.472 312.23 716.096H322.59C322.964 716.096 323.253 715.984 323.458 715.76C323.682 715.536 323.794 715.228 323.794 714.836C323.794 714.052 323.393 713.66 322.59 713.66H315.786ZM330.253 725V710.58H348.929C350.571 710.58 351.775 710.991 352.541 711.812C353.306 712.615 353.689 713.679 353.689 715.004V725H349.629V715.508C349.629 714.369 349.05 713.8 347.893 713.8H344.001V725H339.941V713.8H334.313V725H330.253Z" fill="white"/>
<path d="M39.96 912V891.98H44.44V908.36H59.084V912H39.96ZM61.3437 912V897.58H65.4037V912H61.3437ZM61.3157 895.2V892.036H65.4317V895.2H61.3157ZM86.1064 918.3H82.0464V912H75.7464C73.2451 912 71.2944 911.384 69.8944 910.152C68.4944 908.92 67.7944 907.128 67.7944 904.776C67.7944 902.443 68.4944 900.66 69.8944 899.428C71.2944 898.196 73.2451 897.58 75.7464 897.58H86.1064V918.3ZM75.7464 900.8C74.5331 900.8 73.5997 901.136 72.9464 901.808C72.3117 902.461 71.9944 903.451 71.9944 904.776C71.9944 906.12 72.3117 907.128 72.9464 907.8C73.5997 908.453 74.5331 908.78 75.7464 908.78H82.0464V900.8H75.7464ZM93.6563 912C92.0137 912 90.8097 911.589 90.0443 910.768C89.2977 909.947 88.9243 908.883 88.9243 907.576V897.58H92.9843V907.1C92.9843 908.22 93.5443 908.78 94.6643 908.78H100.488C101.608 908.78 102.168 908.22 102.168 907.1V897.58H106.228V907.576C106.228 908.883 105.846 909.947 105.08 910.768C104.334 911.589 103.139 912 101.496 912H93.6563ZM109.036 912V897.58H113.096V912H109.036ZM109.008 895.2V892.036H113.124V895.2H109.008ZM133.799 912H129.739V891.98H133.799V912ZM133.099 912H123.439C120.937 912 118.987 911.384 117.587 910.152C116.187 908.92 115.487 907.137 115.487 904.804C115.487 902.452 116.187 900.66 117.587 899.428C118.987 898.196 120.937 897.58 123.439 897.58H132.819V900.8H123.439C122.225 900.8 121.292 901.136 120.639 901.808C120.004 902.461 119.687 903.46 119.687 904.804C119.687 906.129 120.004 907.128 120.639 907.8C121.292 908.453 122.225 908.78 123.439 908.78H133.099V912ZM136.757 912V897.58H140.817V912H136.757ZM136.729 895.2V892.036H140.845V895.2H136.729ZM151.271 912C149.647 912 148.453 911.599 147.687 910.796C146.922 909.975 146.539 908.901 146.539 907.576V900.8H142.367V897.58H146.539V893.156H150.599V897.58H156.591V900.8H150.599V907.072C150.599 908.211 151.159 908.78 152.279 908.78H157.375V912H151.271ZM162.585 918.3V915.08H171.041C172.161 915.08 172.721 914.511 172.721 913.372V912H164.069C162.426 912 161.222 911.589 160.457 910.768C159.71 909.947 159.337 908.883 159.337 907.576V897.58H163.397V907.1C163.397 908.22 163.957 908.78 165.077 908.78H172.581V897.58H176.781V913.876C176.781 915.201 176.398 916.265 175.633 917.068C174.867 917.889 173.673 918.3 172.049 918.3H162.585Z" fill="white"/>
<path d="M39.3209 489.183C44.0966 485.39 48.6207 481.821 48.6456 478.121C48.6591 476.121 47.7942 474.615 45.3442 474.598C42.9943 474.582 41.7834 476.199 41.6681 478.474L39.4681 478.459C39.644 474.61 42.0824 472.626 45.3324 472.648C48.7323 472.671 50.9188 474.686 50.8962 478.036C50.8659 482.536 45.9903 486.328 42.7477 488.931L51.3475 488.989L51.3347 490.889L39.31 490.808L39.3209 489.183ZM65.4838 473.084L65.4703 475.084L56.6955 475.025L56.6571 480.725C57.414 479.705 59.0194 478.915 60.7943 478.927C65.1942 478.957 66.5728 482.141 66.554 484.941C66.5304 488.441 64.5616 491.228 60.3367 491.2C56.7368 491.175 54.5755 489.136 54.1452 486.208L56.3701 486.223C56.7823 488.126 58.2497 489.26 60.3747 489.275C63.1246 489.293 64.362 487.452 64.3787 484.977C64.396 482.402 63.0812 480.893 60.4562 480.875C58.6313 480.863 57.2999 481.804 56.6903 483.225L54.5404 483.21L54.609 473.011L65.4838 473.084ZM69.0033 477.208C69.019 474.883 70.6034 473.493 72.6783 473.507C74.7783 473.521 76.3188 474.932 76.3032 477.257C76.2874 479.607 74.728 480.996 72.628 480.982C70.5531 480.968 68.9875 479.558 69.0033 477.208ZM72.6689 474.907C71.5689 474.9 70.8389 475.645 70.8283 477.22C70.8179 478.77 71.5375 479.575 72.6374 479.582C73.7374 479.59 74.4928 478.795 74.5032 477.245C74.5138 475.67 73.7689 474.915 72.6689 474.907ZM81.3763 473.841L83.6262 473.856L73.384 491.237L71.1341 491.222L81.3763 473.841ZM78.5071 487.822C78.5229 485.472 80.0823 484.082 82.1823 484.096C84.2572 484.11 85.7978 485.521 85.782 487.871C85.7663 490.196 84.2068 491.61 82.1318 491.596C80.0318 491.582 78.4915 490.147 78.5071 487.822ZM82.1477 485.521C81.0477 485.514 80.2927 486.259 80.2821 487.834C80.2716 489.384 81.0166 490.139 82.1166 490.146C83.2165 490.154 83.9716 489.409 83.982 487.859C83.9926 486.284 83.2477 485.529 82.1477 485.521Z" fill="white"/>
<path d="M39.3209 641.183C44.0966 637.39 48.6207 633.821 48.6456 630.121C48.6591 628.121 47.7942 626.615 45.3442 626.598C42.9943 626.582 41.7834 628.199 41.6681 630.474L39.4681 630.459C39.644 626.61 42.0824 624.626 45.3324 624.648C48.7323 624.671 50.9188 626.686 50.8962 630.036C50.8659 634.536 45.9903 638.328 42.7477 640.931L51.3475 640.989L51.3347 642.889L39.31 642.808L39.3209 641.183ZM53.8993 633.881C53.9341 628.706 55.2607 624.765 60.2606 624.799C65.2355 624.832 66.5088 628.791 66.474 633.966C66.4387 639.216 65.112 643.182 60.1371 643.148C55.1372 643.115 53.864 639.131 53.8993 633.881ZM64.2241 633.951C64.2493 630.201 63.7965 626.897 60.2466 626.874C56.6717 626.85 56.1745 630.146 56.1492 633.896C56.123 637.796 56.5761 641.049 60.151 641.073C63.701 641.097 64.1978 637.85 64.2241 633.951ZM69.0033 629.208C69.019 626.883 70.6034 625.493 72.6783 625.507C74.7783 625.521 76.3188 626.932 76.3032 629.257C76.2874 631.607 74.728 632.996 72.628 632.982C70.5531 632.968 68.9875 631.558 69.0033 629.208ZM72.6689 626.907C71.5689 626.9 70.8389 627.645 70.8283 629.22C70.8179 630.77 71.5375 631.575 72.6374 631.582C73.7374 631.59 74.4928 630.795 74.5032 629.245C74.5138 627.67 73.7689 626.915 72.6689 626.907ZM81.3763 625.841L83.6262 625.856L73.384 643.237L71.1341 643.222L81.3763 625.841ZM78.5071 639.822C78.5229 637.472 80.0823 636.082 82.1823 636.096C84.2572 636.11 85.7978 637.521 85.782 639.871C85.7663 642.196 84.2068 643.61 82.1318 643.596C80.0318 643.582 78.4915 642.147 78.5071 639.822ZM82.1477 637.521C81.0477 637.514 80.2927 638.259 80.2821 639.834C80.2716 641.384 81.0166 642.139 82.1166 642.146C83.2165 642.154 83.9716 641.409 83.982 639.859C83.9926 638.284 83.2477 637.529 82.1477 637.521Z" fill="white"/>
<path d="M43.4913 783.022L41.0913 783.006L41.1053 780.931L45.8052 780.963L45.6836 799.038L43.3836 799.022L43.4913 783.022ZM61.1118 781.041L61.0984 783.041L52.3236 782.982L52.2852 788.682C53.0421 787.662 54.6474 786.873 56.4224 786.884C60.8223 786.914 62.2009 790.098 62.1821 792.898C62.1585 796.398 60.1897 799.185 55.9648 799.157C52.3649 799.132 50.2036 797.093 49.7733 794.165L51.9982 794.18C52.4104 796.083 53.8778 797.218 56.0028 797.232C58.7527 797.25 59.9901 795.409 60.0068 792.934C60.0241 790.359 58.7092 788.85 56.0843 788.832C54.2593 788.82 52.928 789.761 52.3184 791.182L50.1684 791.168L50.2371 780.968L61.1118 781.041ZM64.6314 785.165C64.6471 782.84 66.2314 781.45 68.3064 781.464C70.4063 781.478 71.9469 782.889 71.9312 785.214C71.9154 787.564 70.356 788.953 68.2561 788.939C66.1811 788.925 64.6156 787.515 64.6314 785.165ZM68.297 782.864C67.197 782.857 66.467 783.602 66.4564 785.177C66.4459 786.727 67.1655 787.532 68.2655 787.539C69.3655 787.547 70.1209 786.752 70.1313 785.202C70.1419 783.627 69.3969 782.872 68.297 782.864ZM77.0043 781.798L79.2543 781.813L69.0121 799.195L66.7621 799.179L77.0043 781.798ZM74.1352 795.779C74.151 793.429 75.7104 792.039 77.8103 792.054C79.8853 792.068 81.4258 793.478 81.41 795.828C81.3944 798.153 79.8348 799.567 77.7599 799.553C75.6599 799.539 74.1195 798.104 74.1352 795.779ZM77.7758 793.478C76.6758 793.471 75.9208 794.216 75.9102 795.791C75.8997 797.341 76.6447 798.096 77.7446 798.103C78.8446 798.111 79.5996 797.366 79.6101 795.816C79.6207 794.241 78.8757 793.486 77.7758 793.478Z" fill="white"/>
<path d="M41.4913 980.022L39.0913 980.006L39.1053 977.931L43.8052 977.963L43.6836 996.038L41.3836 996.022L41.4913 980.022ZM47.5274 986.838C47.5622 981.663 48.8888 977.722 53.8886 977.756C58.8635 977.789 60.1369 981.748 60.1021 986.923C60.0668 992.173 58.74 996.139 53.7651 996.105C48.7653 996.072 47.492 992.088 47.5274 986.838ZM57.8521 986.908C57.8774 983.158 57.4246 979.855 53.8747 979.831C50.2998 979.807 49.8026 983.103 49.7773 986.853C49.7511 990.753 50.2042 994.006 53.7791 994.03C57.329 994.054 57.8259 990.808 57.8521 986.908ZM62.6314 982.165C62.6471 979.84 64.2314 978.45 66.3064 978.464C68.4063 978.478 69.9469 979.889 69.9312 982.214C69.9154 984.564 68.356 985.953 66.2561 985.939C64.1811 985.925 62.6156 984.515 62.6314 982.165ZM66.297 979.864C65.197 979.857 64.467 980.602 64.4564 982.177C64.4459 983.727 65.1655 984.532 66.2655 984.539C67.3655 984.547 68.1209 983.752 68.1313 982.202C68.1419 980.627 67.3969 979.872 66.297 979.864ZM75.0043 978.798L77.2543 978.813L67.0121 996.195L64.7621 996.179L75.0043 978.798ZM72.1352 992.779C72.151 990.429 73.7104 989.039 75.8103 989.054C77.8853 989.068 79.4258 990.478 79.41 992.828C79.3944 995.153 77.8348 996.567 75.7599 996.553C73.6599 996.539 72.1195 995.104 72.1352 992.779ZM75.7758 990.478C74.6758 990.471 73.9208 991.216 73.9102 992.791C73.8997 994.341 74.6447 995.096 75.7446 995.103C76.8446 995.111 77.5996 994.366 77.6101 992.816C77.6207 991.241 76.8757 990.486 75.7758 990.478Z" fill="white"/>
<path d="M1231.82 983V964.41H1247.39C1249.32 964.41 1250.81 964.895 1251.87 965.866C1252.94 966.837 1253.48 968.31 1253.48 970.286C1253.48 971.967 1253.09 973.285 1252.31 974.238C1251.53 975.191 1250.42 975.789 1248.98 976.032L1253.27 983H1248.54L1244.56 976.162H1235.98V983H1231.82ZM1246.9 967.79H1235.98V972.756L1246.9 972.782C1247.66 972.782 1248.24 972.591 1248.64 972.21C1249.06 971.829 1249.27 971.187 1249.27 970.286C1249.27 969.367 1249.06 968.726 1248.64 968.362C1248.24 967.981 1247.66 967.79 1246.9 967.79ZM1262.95 983.13C1260.63 983.13 1258.82 982.558 1257.52 981.414C1256.22 980.253 1255.57 978.554 1255.57 976.318C1255.57 974.065 1256.22 972.366 1257.52 971.222C1258.82 970.061 1260.63 969.48 1262.95 969.48H1269.45C1270.97 969.48 1272.14 969.844 1272.93 970.572C1273.75 971.283 1274.16 972.305 1274.16 973.64C1274.16 976.361 1272.59 977.722 1269.45 977.722H1259.62C1259.99 979.334 1261.09 980.14 1262.95 980.14H1273.48V983.13H1262.95ZM1262.95 972.47C1261.16 972.47 1260.06 973.224 1259.65 974.732H1269.27C1269.61 974.732 1269.88 974.628 1270.07 974.42C1270.28 974.212 1270.39 973.926 1270.39 973.562C1270.39 972.834 1270.01 972.47 1269.27 972.47H1262.95ZM1277 983L1275.72 969.61H1279.52L1280.4 979.776L1284.43 977.956V969.61H1288.2V977.982L1292.23 979.776L1293.12 969.61H1296.91L1295.64 983H1292.08L1286.31 980.452L1280.56 983H1277ZM1302.56 983C1301.16 983 1300.08 982.645 1299.34 981.934C1298.59 981.223 1298.22 980.209 1298.22 978.892C1298.22 977.592 1298.59 976.587 1299.34 975.876C1300.08 975.165 1301.16 974.81 1302.56 974.81H1312.54V974.186C1312.54 973.129 1312.02 972.6 1310.98 972.6H1299.96V969.61H1311.97C1313.55 969.61 1314.67 969.974 1315.33 970.702C1315.98 971.413 1316.31 972.418 1316.31 973.718V983H1302.56ZM1303.24 980.01H1312.54V977.8H1303.24C1302.91 977.8 1302.65 977.904 1302.46 978.112C1302.28 978.303 1302.2 978.563 1302.2 978.892C1302.2 979.221 1302.28 979.49 1302.46 979.698C1302.65 979.906 1302.91 980.01 1303.24 980.01ZM1319.06 983V969.61H1329.3C1330.81 969.61 1331.92 969.991 1332.63 970.754C1333.34 971.499 1333.69 972.487 1333.69 973.718V976.5H1329.87V974.186C1329.87 973.146 1329.35 972.626 1328.31 972.626H1322.88V983H1319.06ZM1352.63 983H1348.86V964.41H1352.63V983ZM1351.98 983H1343.01C1340.69 983 1338.88 982.428 1337.58 981.284C1336.28 980.14 1335.63 978.485 1335.63 976.318C1335.63 974.134 1336.28 972.47 1337.58 971.326C1338.88 970.182 1340.69 969.61 1343.01 969.61H1351.72V972.6H1343.01C1341.88 972.6 1341.02 972.912 1340.41 973.536C1339.82 974.143 1339.53 975.07 1339.53 976.318C1339.53 977.549 1339.82 978.476 1340.41 979.1C1341.02 979.707 1341.88 980.01 1343.01 980.01H1351.98V983ZM1354.93 983.13V980.14H1367.67C1368.39 980.14 1368.76 979.733 1368.76 978.918C1368.76 978.121 1368.39 977.722 1367.67 977.722H1359.42C1357.88 977.722 1356.71 977.375 1355.91 976.682C1355.12 975.971 1354.72 974.957 1354.72 973.64C1354.72 972.305 1355.12 971.283 1355.91 970.572C1356.73 969.844 1357.9 969.48 1359.42 969.48H1371.28V972.47H1359.61C1358.86 972.47 1358.49 972.834 1358.49 973.562C1358.49 973.926 1358.59 974.212 1358.8 974.42C1359.01 974.628 1359.28 974.732 1359.61 974.732H1368.34C1369.69 974.732 1370.72 975.087 1371.44 975.798C1372.16 976.491 1372.53 977.505 1372.53 978.84C1372.53 980.192 1372.16 981.249 1371.44 982.012C1370.71 982.757 1369.68 983.13 1368.34 983.13H1354.93Z" fill="white"/>
<path d="M1251.17 272.822V263.41H1274.05V272.822H1269.84V266.79H1264.17V282H1260.01V266.79H1255.38V272.822H1251.17ZM1276.52 282V268.61H1286.76C1288.27 268.61 1289.38 268.991 1290.09 269.754C1290.8 270.499 1291.15 271.487 1291.15 272.718V275.5H1287.33V273.186C1287.33 272.146 1286.81 271.626 1285.77 271.626H1280.34V282H1276.52ZM1300.47 282.13C1298.15 282.13 1296.34 281.558 1295.04 280.414C1293.74 279.253 1293.09 277.554 1293.09 275.318C1293.09 273.065 1293.74 271.366 1295.04 270.222C1296.34 269.061 1298.15 268.48 1300.47 268.48H1306.97C1308.5 268.48 1309.66 268.844 1310.45 269.572C1311.27 270.283 1311.68 271.305 1311.68 272.64C1311.68 275.361 1310.11 276.722 1306.97 276.722H1297.14C1297.51 278.334 1298.62 279.14 1300.47 279.14H1311V282.13H1300.47ZM1300.47 271.47C1298.68 271.47 1297.58 272.224 1297.17 273.732H1306.79C1307.13 273.732 1307.4 273.628 1307.59 273.42C1307.8 273.212 1307.91 272.926 1307.91 272.562C1307.91 271.834 1307.53 271.47 1306.79 271.47H1300.47ZM1317.46 282C1316.05 282 1314.98 281.645 1314.23 280.934C1313.49 280.223 1313.11 279.209 1313.11 277.892C1313.11 276.592 1313.49 275.587 1314.23 274.876C1314.98 274.165 1316.05 273.81 1317.46 273.81H1327.44V273.186C1327.44 272.129 1326.92 271.6 1325.88 271.6H1314.86V268.61H1326.87C1328.45 268.61 1329.56 268.974 1330.22 269.702C1330.88 270.413 1331.21 271.418 1331.21 272.718V282H1317.46ZM1318.13 279.01H1327.44V276.8H1318.13C1317.8 276.8 1317.54 276.904 1317.35 277.112C1317.18 277.303 1317.09 277.563 1317.09 277.892C1317.09 278.221 1317.18 278.49 1317.35 278.698C1317.54 278.906 1317.8 279.01 1318.13 279.01ZM1333.51 282.13V279.14H1346.25C1346.98 279.14 1347.34 278.733 1347.34 277.918C1347.34 277.121 1346.98 276.722 1346.25 276.722H1338.01C1336.47 276.722 1335.3 276.375 1334.5 275.682C1333.7 274.971 1333.3 273.957 1333.3 272.64C1333.3 271.305 1333.7 270.283 1334.5 269.572C1335.31 268.844 1336.48 268.48 1338.01 268.48H1349.87V271.47H1338.19C1337.45 271.47 1337.07 271.834 1337.07 272.562C1337.07 272.926 1337.18 273.212 1337.39 273.42C1337.59 273.628 1337.86 273.732 1338.19 273.732H1346.93C1348.28 273.732 1349.31 274.087 1350.02 274.798C1350.75 275.491 1351.11 276.505 1351.11 277.84C1351.11 279.192 1350.75 280.249 1350.02 281.012C1349.29 281.757 1348.26 282.13 1346.93 282.13H1333.51ZM1357.46 282C1355.94 282 1354.82 281.619 1354.11 280.856C1353.42 280.093 1353.07 279.105 1353.07 277.892V268.61H1356.84V277.45C1356.84 278.49 1357.36 279.01 1358.4 279.01H1363.81C1364.85 279.01 1365.37 278.49 1365.37 277.45V268.61H1369.14V277.892C1369.14 279.105 1368.78 280.093 1368.07 280.856C1367.38 281.619 1366.27 282 1364.74 282H1357.46ZM1371.74 282V268.61H1381.98C1383.49 268.61 1384.6 268.991 1385.31 269.754C1386.02 270.499 1386.37 271.487 1386.37 272.718V275.5H1382.55V273.186C1382.55 272.146 1382.03 271.626 1380.99 271.626H1375.56V282H1371.74ZM1391.33 287.85V284.86H1399.19C1400.23 284.86 1400.75 284.331 1400.75 283.274V282H1392.71C1391.19 282 1390.07 281.619 1389.36 280.856C1388.66 280.093 1388.32 279.105 1388.32 277.892V268.61H1392.09V277.45C1392.09 278.49 1392.61 279.01 1393.65 279.01H1400.62V268.61H1404.52V283.742C1404.52 284.973 1404.16 285.961 1403.45 286.706C1402.74 287.469 1401.63 287.85 1400.12 287.85H1391.33Z" fill="white"/>
<path d="M1234.28 1035.17C1239.03 1031.35 1243.53 1027.75 1243.53 1024.05C1243.53 1022.05 1242.65 1020.55 1240.2 1020.55C1237.85 1020.55 1236.65 1022.17 1236.55 1024.45H1234.35C1234.5 1020.6 1236.93 1018.6 1240.18 1018.6C1243.58 1018.6 1245.78 1020.6 1245.78 1023.95C1245.78 1028.45 1240.93 1032.27 1237.7 1034.9H1246.3V1036.8H1234.28V1035.17ZM1248.3 1023C1248.3 1020.67 1249.88 1019.27 1251.95 1019.27C1254.05 1019.27 1255.6 1020.67 1255.6 1023C1255.6 1025.35 1254.05 1026.75 1251.95 1026.75C1249.88 1026.75 1248.3 1025.35 1248.3 1023ZM1251.95 1020.67C1250.85 1020.67 1250.13 1021.42 1250.13 1023C1250.13 1024.55 1250.85 1025.35 1251.95 1025.35C1253.05 1025.35 1253.8 1024.55 1253.8 1023C1253.8 1021.42 1253.05 1020.67 1251.95 1020.67ZM1260.65 1019.55H1262.9L1252.78 1037H1250.53L1260.65 1019.55ZM1257.88 1033.55C1257.88 1031.2 1259.43 1029.8 1261.53 1029.8C1263.6 1029.8 1265.15 1031.2 1265.15 1033.55C1265.15 1035.87 1263.6 1037.3 1261.53 1037.3C1259.43 1037.3 1257.88 1035.87 1257.88 1033.55ZM1261.5 1031.22C1260.4 1031.22 1259.65 1031.97 1259.65 1033.55C1259.65 1035.1 1260.4 1035.85 1261.5 1035.85C1262.6 1035.85 1263.35 1035.1 1263.35 1033.55C1263.35 1031.97 1262.6 1031.22 1261.5 1031.22Z" fill="white"/>
<path d="M1265.08 322.9V324.9H1256.3V330.6C1257.05 329.575 1258.65 328.775 1260.43 328.775C1264.83 328.775 1266.23 331.95 1266.23 334.75C1266.23 338.25 1264.28 341.05 1260.05 341.05C1256.45 341.05 1254.28 339.025 1253.83 336.1H1256.05C1256.48 338 1257.95 339.125 1260.08 339.125C1262.83 339.125 1264.05 337.275 1264.05 334.8C1264.05 332.225 1262.73 330.725 1260.1 330.725C1258.28 330.725 1256.95 331.675 1256.35 333.1H1254.2V322.9H1265.08ZM1268.62 327C1268.62 324.675 1270.2 323.275 1272.27 323.275C1274.37 323.275 1275.92 324.675 1275.92 327C1275.92 329.35 1274.37 330.75 1272.27 330.75C1270.2 330.75 1268.62 329.35 1268.62 327ZM1272.27 324.675C1271.17 324.675 1270.45 325.425 1270.45 327C1270.45 328.55 1271.17 329.35 1272.27 329.35C1273.37 329.35 1274.12 328.55 1274.12 327C1274.12 325.425 1273.37 324.675 1272.27 324.675ZM1280.97 323.55H1283.22L1273.1 341H1270.85L1280.97 323.55ZM1278.2 337.55C1278.2 335.2 1279.75 333.8 1281.85 333.8C1283.92 333.8 1285.47 335.2 1285.47 337.55C1285.47 339.875 1283.92 341.3 1281.85 341.3C1279.75 341.3 1278.2 339.875 1278.2 337.55ZM1281.82 335.225C1280.72 335.225 1279.97 335.975 1279.97 337.55C1279.97 339.1 1280.72 339.85 1281.82 339.85C1282.92 339.85 1283.67 339.1 1283.67 337.55C1283.67 335.975 1282.92 335.225 1281.82 335.225Z" fill="white"/>
<path d="M1227.28 1171.17C1232.03 1167.35 1236.53 1163.75 1236.53 1160.05C1236.53 1158.05 1235.65 1156.55 1233.2 1156.55C1230.85 1156.55 1229.65 1158.17 1229.55 1160.45H1227.35C1227.5 1156.6 1229.93 1154.6 1233.18 1154.6C1236.58 1154.6 1238.78 1156.6 1238.78 1159.95C1238.78 1164.45 1233.93 1168.27 1230.7 1170.9H1239.3V1172.8H1227.28V1171.17ZM1241.3 1159C1241.3 1156.67 1242.88 1155.27 1244.95 1155.27C1247.05 1155.27 1248.6 1156.67 1248.6 1159C1248.6 1161.35 1247.05 1162.75 1244.95 1162.75C1242.88 1162.75 1241.3 1161.35 1241.3 1159ZM1244.95 1156.67C1243.85 1156.67 1243.13 1157.42 1243.13 1159C1243.13 1160.55 1243.85 1161.35 1244.95 1161.35C1246.05 1161.35 1246.8 1160.55 1246.8 1159C1246.8 1157.42 1246.05 1156.67 1244.95 1156.67ZM1253.65 1155.55H1255.9L1245.78 1173H1243.53L1253.65 1155.55ZM1250.88 1169.55C1250.88 1167.2 1252.43 1165.8 1254.53 1165.8C1256.6 1165.8 1258.15 1167.2 1258.15 1169.55C1258.15 1171.87 1256.6 1173.3 1254.53 1173.3C1252.43 1173.3 1250.88 1171.87 1250.88 1169.55ZM1254.5 1167.22C1253.4 1167.22 1252.65 1167.97 1252.65 1169.55C1252.65 1171.1 1253.4 1171.85 1254.5 1171.85C1255.6 1171.85 1256.35 1171.1 1256.35 1169.55C1256.35 1167.97 1255.6 1167.22 1254.5 1167.22Z" fill="white"/>
<path d="M1286.08 467.9V469.9H1277.3V475.6C1278.05 474.575 1279.65 473.775 1281.43 473.775C1285.83 473.775 1287.23 476.95 1287.23 479.75C1287.23 483.25 1285.28 486.05 1281.05 486.05C1277.45 486.05 1275.28 484.025 1274.83 481.1H1277.05C1277.48 483 1278.95 484.125 1281.08 484.125C1283.83 484.125 1285.05 482.275 1285.05 479.8C1285.05 477.225 1283.73 475.725 1281.1 475.725C1279.28 475.725 1277.95 476.675 1277.35 478.1H1275.2V467.9H1286.08ZM1289.62 472C1289.62 469.675 1291.2 468.275 1293.27 468.275C1295.37 468.275 1296.92 469.675 1296.92 472C1296.92 474.35 1295.37 475.75 1293.27 475.75C1291.2 475.75 1289.62 474.35 1289.62 472ZM1293.27 469.675C1292.17 469.675 1291.45 470.425 1291.45 472C1291.45 473.55 1292.17 474.35 1293.27 474.35C1294.37 474.35 1295.12 473.55 1295.12 472C1295.12 470.425 1294.37 469.675 1293.27 469.675ZM1301.97 468.55H1304.22L1294.1 486H1291.85L1301.97 468.55ZM1299.2 482.55C1299.2 480.2 1300.75 478.8 1302.85 478.8C1304.92 478.8 1306.47 480.2 1306.47 482.55C1306.47 484.875 1304.92 486.3 1302.85 486.3C1300.75 486.3 1299.2 484.875 1299.2 482.55ZM1302.82 480.225C1301.72 480.225 1300.97 480.975 1300.97 482.55C1300.97 484.1 1301.72 484.85 1302.82 484.85C1303.92 484.85 1304.67 484.1 1304.67 482.55C1304.67 480.975 1303.92 480.225 1302.82 480.225Z" fill="white"/>
<path d="M1363.08 580.9V582.9H1354.3V588.6C1355.05 587.575 1356.65 586.775 1358.43 586.775C1362.83 586.775 1364.23 589.95 1364.23 592.75C1364.23 596.25 1362.28 599.05 1358.05 599.05C1354.45 599.05 1352.28 597.025 1351.83 594.1H1354.05C1354.48 596 1355.95 597.125 1358.08 597.125C1360.83 597.125 1362.05 595.275 1362.05 592.8C1362.05 590.225 1360.73 588.725 1358.1 588.725C1356.28 588.725 1354.95 589.675 1354.35 591.1H1352.2V580.9H1363.08ZM1366.62 585C1366.62 582.675 1368.2 581.275 1370.27 581.275C1372.37 581.275 1373.92 582.675 1373.92 585C1373.92 587.35 1372.37 588.75 1370.27 588.75C1368.2 588.75 1366.62 587.35 1366.62 585ZM1370.27 582.675C1369.17 582.675 1368.45 583.425 1368.45 585C1368.45 586.55 1369.17 587.35 1370.27 587.35C1371.37 587.35 1372.12 586.55 1372.12 585C1372.12 583.425 1371.37 582.675 1370.27 582.675ZM1378.97 581.55H1381.22L1371.1 599H1368.85L1378.97 581.55ZM1376.2 595.55C1376.2 593.2 1377.75 591.8 1379.85 591.8C1381.92 591.8 1383.47 593.2 1383.47 595.55C1383.47 597.875 1381.92 599.3 1379.85 599.3C1377.75 599.3 1376.2 597.875 1376.2 595.55ZM1379.82 593.225C1378.72 593.225 1377.97 593.975 1377.97 595.55C1377.97 597.1 1378.72 597.85 1379.82 597.85C1380.92 597.85 1381.67 597.1 1381.67 595.55C1381.67 593.975 1380.92 593.225 1379.82 593.225Z" fill="white"/>
<path d="M1210.08 738.9V740.9H1201.3V746.6C1202.05 745.575 1203.65 744.775 1205.43 744.775C1209.83 744.775 1211.23 747.95 1211.23 750.75C1211.23 754.25 1209.28 757.05 1205.05 757.05C1201.45 757.05 1199.28 755.025 1198.83 752.1H1201.05C1201.48 754 1202.95 755.125 1205.08 755.125C1207.83 755.125 1209.05 753.275 1209.05 750.8C1209.05 748.225 1207.73 746.725 1205.1 746.725C1203.28 746.725 1201.95 747.675 1201.35 749.1H1199.2V738.9H1210.08ZM1213.62 743C1213.62 740.675 1215.2 739.275 1217.27 739.275C1219.37 739.275 1220.92 740.675 1220.92 743C1220.92 745.35 1219.37 746.75 1217.27 746.75C1215.2 746.75 1213.62 745.35 1213.62 743ZM1217.27 740.675C1216.17 740.675 1215.45 741.425 1215.45 743C1215.45 744.55 1216.17 745.35 1217.27 745.35C1218.37 745.35 1219.12 744.55 1219.12 743C1219.12 741.425 1218.37 740.675 1217.27 740.675ZM1225.97 739.55H1228.22L1218.1 757H1215.85L1225.97 739.55ZM1223.2 753.55C1223.2 751.2 1224.75 749.8 1226.85 749.8C1228.92 749.8 1230.47 751.2 1230.47 753.55C1230.47 755.875 1228.92 757.3 1226.85 757.3C1224.75 757.3 1223.2 755.875 1223.2 753.55ZM1226.82 751.225C1225.72 751.225 1224.97 751.975 1224.97 753.55C1224.97 755.1 1225.72 755.85 1226.82 755.85C1227.92 755.85 1228.67 755.1 1228.67 753.55C1228.67 751.975 1227.92 751.225 1226.82 751.225Z" fill="white"/>
<path d="M1280.5 903.475C1280.73 900.375 1283.08 898.575 1286.43 898.575C1289.95 898.575 1291.88 900.625 1291.88 903.225C1291.88 905.3 1290.58 906.925 1288.68 907.35V907.475C1290.78 907.975 1292.2 909.525 1292.2 912.125C1292.2 914.925 1290.25 917.125 1286.48 917.125C1283.05 917.125 1280.5 915.3 1280.23 911.8H1282.43C1282.65 913.725 1284.05 915.2 1286.45 915.2C1288.88 915.2 1290.03 913.775 1290.03 911.925C1290.03 909.375 1288.25 908.4 1285 908.4H1284.43V906.5H1285.03C1288.05 906.475 1289.68 905.55 1289.68 903.45C1289.68 901.725 1288.53 900.525 1286.35 900.525C1284.23 900.525 1282.95 901.725 1282.73 903.475H1280.5ZM1294.65 903C1294.65 900.675 1296.22 899.275 1298.3 899.275C1300.4 899.275 1301.95 900.675 1301.95 903C1301.95 905.35 1300.4 906.75 1298.3 906.75C1296.22 906.75 1294.65 905.35 1294.65 903ZM1298.3 900.675C1297.2 900.675 1296.47 901.425 1296.47 903C1296.47 904.55 1297.2 905.35 1298.3 905.35C1299.4 905.35 1300.15 904.55 1300.15 903C1300.15 901.425 1299.4 900.675 1298.3 900.675ZM1307 899.55H1309.25L1299.12 917H1296.87L1307 899.55ZM1304.22 913.55C1304.22 911.2 1305.77 909.8 1307.87 909.8C1309.95 909.8 1311.5 911.2 1311.5 913.55C1311.5 915.875 1309.95 917.3 1307.87 917.3C1305.77 917.3 1304.22 915.875 1304.22 913.55ZM1307.85 911.225C1306.75 911.225 1306 911.975 1306 913.55C1306 915.1 1306.75 915.85 1307.85 915.85C1308.95 915.85 1309.7 915.1 1309.7 913.55C1309.7 911.975 1308.95 911.225 1307.85 911.225Z" fill="white"/>
<path d="M1144.5 1277.47C1144.73 1274.37 1147.08 1272.57 1150.43 1272.57C1153.95 1272.57 1155.88 1274.62 1155.88 1277.23C1155.88 1279.3 1154.58 1280.92 1152.68 1281.35V1281.47C1154.78 1281.97 1156.2 1283.52 1156.2 1286.12C1156.2 1288.92 1154.25 1291.13 1150.48 1291.13C1147.05 1291.13 1144.5 1289.3 1144.23 1285.8H1146.43C1146.65 1287.72 1148.05 1289.2 1150.45 1289.2C1152.88 1289.2 1154.03 1287.77 1154.03 1285.92C1154.03 1283.37 1152.25 1282.4 1149 1282.4H1148.43V1280.5H1149.03C1152.05 1280.47 1153.68 1279.55 1153.68 1277.45C1153.68 1275.72 1152.53 1274.52 1150.35 1274.52C1148.23 1274.52 1146.95 1275.72 1146.73 1277.47H1144.5ZM1158.65 1277C1158.65 1274.67 1160.22 1273.27 1162.3 1273.27C1164.4 1273.27 1165.95 1274.67 1165.95 1277C1165.95 1279.35 1164.4 1280.75 1162.3 1280.75C1160.22 1280.75 1158.65 1279.35 1158.65 1277ZM1162.3 1274.67C1161.2 1274.67 1160.47 1275.42 1160.47 1277C1160.47 1278.55 1161.2 1279.35 1162.3 1279.35C1163.4 1279.35 1164.15 1278.55 1164.15 1277C1164.15 1275.42 1163.4 1274.67 1162.3 1274.67ZM1171 1273.55H1173.25L1163.12 1291H1160.87L1171 1273.55ZM1168.22 1287.55C1168.22 1285.2 1169.77 1283.8 1171.87 1283.8C1173.95 1283.8 1175.5 1285.2 1175.5 1287.55C1175.5 1289.87 1173.95 1291.3 1171.87 1291.3C1169.77 1291.3 1168.22 1289.87 1168.22 1287.55ZM1171.85 1285.22C1170.75 1285.22 1170 1285.97 1170 1287.55C1170 1289.1 1170.75 1289.85 1171.85 1289.85C1172.95 1289.85 1173.7 1289.1 1173.7 1287.55C1173.7 1285.97 1172.95 1285.22 1171.85 1285.22Z" fill="white"/>
<path d="M1220.22 1115.13V1111.75L1235.17 1111.78C1235.93 1111.78 1236.52 1111.6 1236.91 1111.26C1237.33 1110.89 1237.54 1110.31 1237.54 1109.51C1237.54 1108.72 1237.33 1108.14 1236.91 1107.8C1236.52 1107.43 1235.93 1107.25 1235.17 1107.25H1225.86C1223.94 1107.25 1222.44 1106.79 1221.37 1105.87C1220.31 1104.94 1219.78 1103.57 1219.78 1101.77C1219.78 1099.96 1220.31 1098.6 1221.37 1097.68C1222.44 1096.75 1223.94 1096.28 1225.86 1096.28H1240.48V1099.66L1226.31 1099.63C1225.56 1099.63 1224.98 1099.81 1224.56 1100.15C1224.15 1100.48 1223.94 1101.02 1223.94 1101.77C1223.94 1102.51 1224.15 1103.06 1224.56 1103.4C1224.98 1103.73 1225.56 1103.9 1226.31 1103.9H1235.61C1237.54 1103.9 1239.03 1104.37 1240.09 1105.33C1241.16 1106.26 1241.7 1107.66 1241.7 1109.51C1241.7 1111.35 1241.16 1112.75 1240.09 1113.7C1239.03 1114.65 1237.54 1115.13 1235.61 1115.13H1220.22ZM1250.65 1115.13C1248.33 1115.13 1246.52 1114.56 1245.22 1113.41C1243.92 1112.25 1243.27 1110.55 1243.27 1108.32C1243.27 1106.06 1243.92 1104.37 1245.22 1103.22C1246.52 1102.06 1248.33 1101.48 1250.65 1101.48H1257.15C1258.68 1101.48 1259.84 1101.84 1260.64 1102.57C1261.45 1103.28 1261.86 1104.31 1261.86 1105.64C1261.86 1108.36 1260.29 1109.72 1257.15 1109.72H1247.33C1247.69 1111.33 1248.8 1112.14 1250.65 1112.14H1261.18V1115.13H1250.65ZM1250.65 1104.47C1248.87 1104.47 1247.77 1105.22 1247.35 1106.73H1256.97C1257.32 1106.73 1257.59 1106.63 1257.78 1106.42C1257.99 1106.21 1258.09 1105.93 1258.09 1105.56C1258.09 1104.83 1257.72 1104.47 1256.97 1104.47H1250.65ZM1270.94 1115.13C1268.62 1115.13 1266.81 1114.56 1265.51 1113.41C1264.21 1112.25 1263.56 1110.55 1263.56 1108.32C1263.56 1106.06 1264.21 1104.37 1265.51 1103.22C1266.81 1102.06 1268.62 1101.48 1270.94 1101.48H1277.44C1278.97 1101.48 1280.13 1101.84 1280.93 1102.57C1281.74 1103.28 1282.15 1104.31 1282.15 1105.64C1282.15 1108.36 1280.58 1109.72 1277.44 1109.72H1267.61C1267.98 1111.33 1269.09 1112.14 1270.94 1112.14H1281.47V1115.13H1270.94ZM1270.94 1104.47C1269.16 1104.47 1268.06 1105.22 1267.64 1106.73H1277.26C1277.61 1106.73 1277.88 1106.63 1278.07 1106.42C1278.27 1106.21 1278.38 1105.93 1278.38 1105.56C1278.38 1104.83 1278.01 1104.47 1277.26 1104.47H1270.94ZM1300.85 1115H1297.08V1096.41H1300.85V1115ZM1300.2 1115H1291.23C1288.91 1115 1287.1 1114.43 1285.8 1113.28C1284.5 1112.14 1283.85 1110.48 1283.85 1108.32C1283.85 1106.13 1284.5 1104.47 1285.8 1103.33C1287.1 1102.18 1288.91 1101.61 1291.23 1101.61H1299.94V1104.6H1291.23C1290.1 1104.6 1289.24 1104.91 1288.63 1105.54C1288.04 1106.14 1287.75 1107.07 1287.75 1108.32C1287.75 1109.55 1288.04 1110.48 1288.63 1111.1C1289.24 1111.71 1290.1 1112.01 1291.23 1112.01H1300.2V1115ZM1302.29 1120.02L1314.51 1095.68H1317.86L1305.64 1120.02H1302.29ZM1319.7 1115V1096.41H1335.27C1337.19 1096.41 1338.68 1096.9 1339.74 1097.87C1340.82 1098.84 1341.35 1100.31 1341.35 1102.29C1341.35 1104.26 1340.82 1105.74 1339.74 1106.71C1338.68 1107.68 1337.19 1108.16 1335.27 1108.16H1323.86V1115H1319.7ZM1334.78 1099.79H1323.86V1104.76L1334.78 1104.78C1335.54 1104.78 1336.12 1104.59 1336.52 1104.21C1336.93 1103.83 1337.14 1103.19 1337.14 1102.29C1337.14 1101.37 1336.93 1100.73 1336.52 1100.36C1336.12 1099.98 1335.54 1099.79 1334.78 1099.79ZM1343.43 1115V1101.61H1353.67C1355.18 1101.61 1356.29 1101.99 1357 1102.75C1357.71 1103.5 1358.07 1104.49 1358.07 1105.72V1108.5H1354.24V1106.19C1354.24 1105.15 1353.72 1104.63 1352.68 1104.63H1347.25V1115H1343.43ZM1360.01 1115V1101.61H1363.78V1115H1360.01ZM1359.98 1099.4V1096.46H1363.8V1099.4H1359.98ZM1370.98 1115L1365.34 1101.61H1369.29L1373.66 1111.98H1374.96L1379.33 1101.61H1383.28L1377.64 1115H1370.98ZM1388.4 1115C1387 1115 1385.93 1114.64 1385.18 1113.93C1384.44 1113.22 1384.06 1112.21 1384.06 1110.89C1384.06 1109.59 1384.44 1108.59 1385.18 1107.88C1385.93 1107.17 1387 1106.81 1388.4 1106.81H1398.39V1106.19C1398.39 1105.13 1397.87 1104.6 1396.83 1104.6H1385.8V1101.61H1397.82C1399.39 1101.61 1400.51 1101.97 1401.17 1102.7C1401.83 1103.41 1402.16 1104.42 1402.16 1105.72V1115H1388.4ZM1389.08 1112.01H1398.39V1109.8H1389.08C1388.75 1109.8 1388.49 1109.9 1388.3 1110.11C1388.13 1110.3 1388.04 1110.56 1388.04 1110.89C1388.04 1111.22 1388.13 1111.49 1388.3 1111.7C1388.49 1111.91 1388.75 1112.01 1389.08 1112.01ZM1411.87 1115C1410.36 1115 1409.25 1114.63 1408.54 1113.88C1407.83 1113.12 1407.48 1112.12 1407.48 1110.89V1104.6H1403.6V1101.61H1407.48V1097.5H1411.25V1101.61H1416.81V1104.6H1411.25V1110.42C1411.25 1111.48 1411.77 1112.01 1412.81 1112.01H1417.54V1115H1411.87ZM1426.21 1115.13C1423.89 1115.13 1422.08 1114.56 1420.78 1113.41C1419.48 1112.25 1418.83 1110.55 1418.83 1108.32C1418.83 1106.06 1419.48 1104.37 1420.78 1103.22C1422.08 1102.06 1423.89 1101.48 1426.21 1101.48H1432.71C1434.24 1101.48 1435.4 1101.84 1436.2 1102.57C1437.01 1103.28 1437.42 1104.31 1437.42 1105.64C1437.42 1108.36 1435.85 1109.72 1432.71 1109.72H1422.89C1423.25 1111.33 1424.36 1112.14 1426.21 1112.14H1436.74V1115.13H1426.21ZM1426.21 1104.47C1424.43 1104.47 1423.33 1105.22 1422.91 1106.73H1432.53C1432.88 1106.73 1433.15 1106.63 1433.34 1106.42C1433.55 1106.21 1433.65 1105.93 1433.65 1105.56C1433.65 1104.83 1433.28 1104.47 1432.53 1104.47H1426.21ZM1448.39 1115.13V1111.75L1463.34 1111.78C1464.11 1111.78 1464.69 1111.6 1465.09 1111.26C1465.5 1110.89 1465.71 1110.31 1465.71 1109.51C1465.71 1108.72 1465.5 1108.14 1465.09 1107.8C1464.69 1107.43 1464.11 1107.25 1463.34 1107.25H1454.04C1452.11 1107.25 1450.61 1106.79 1449.54 1105.87C1448.48 1104.94 1447.95 1103.57 1447.95 1101.77C1447.95 1099.96 1448.48 1098.6 1449.54 1097.68C1450.61 1096.75 1452.11 1096.28 1454.04 1096.28H1468.65V1099.66L1454.48 1099.63C1453.73 1099.63 1453.15 1099.81 1452.74 1100.15C1452.32 1100.48 1452.11 1101.02 1452.11 1101.77C1452.11 1102.51 1452.32 1103.06 1452.74 1103.4C1453.15 1103.73 1453.73 1103.9 1454.48 1103.9H1463.79C1465.71 1103.9 1467.2 1104.37 1468.26 1105.33C1469.33 1106.26 1469.87 1107.66 1469.87 1109.51C1469.87 1111.35 1469.33 1112.75 1468.26 1113.7C1467.2 1114.65 1465.71 1115.13 1463.79 1115.13H1448.39ZM1475.52 1115C1474.12 1115 1473.05 1114.64 1472.3 1113.93C1471.56 1113.22 1471.18 1112.21 1471.18 1110.89C1471.18 1109.59 1471.56 1108.59 1472.3 1107.88C1473.05 1107.17 1474.12 1106.81 1475.52 1106.81H1485.51V1106.19C1485.51 1105.13 1484.99 1104.6 1483.95 1104.6H1472.92V1101.61H1484.94C1486.51 1101.61 1487.63 1101.97 1488.29 1102.7C1488.95 1103.41 1489.28 1104.42 1489.28 1105.72V1115H1475.52ZM1476.2 1112.01H1485.51V1109.8H1476.2C1475.87 1109.8 1475.61 1109.9 1475.42 1110.11C1475.25 1110.3 1475.16 1110.56 1475.16 1110.89C1475.16 1111.22 1475.25 1111.49 1475.42 1111.7C1475.61 1111.91 1475.87 1112.01 1476.2 1112.01ZM1492.02 1115V1096.41H1495.79V1115H1492.02ZM1505.39 1115.13C1503.06 1115.13 1501.25 1114.56 1499.95 1113.41C1498.65 1112.25 1498 1110.55 1498 1108.32C1498 1106.06 1498.65 1104.37 1499.95 1103.22C1501.25 1102.06 1503.06 1101.48 1505.39 1101.48H1511.89C1513.41 1101.48 1514.57 1101.84 1515.37 1102.57C1516.19 1103.28 1516.59 1104.31 1516.59 1105.64C1516.59 1108.36 1515.02 1109.72 1511.89 1109.72H1502.06C1502.42 1111.33 1503.53 1112.14 1505.39 1112.14H1515.92V1115.13H1505.39ZM1505.39 1104.47C1503.6 1104.47 1502.5 1105.22 1502.09 1106.73H1511.71C1512.05 1106.73 1512.32 1106.63 1512.51 1106.42C1512.72 1106.21 1512.82 1105.93 1512.82 1105.56C1512.82 1104.83 1512.45 1104.47 1511.71 1104.47H1505.39Z" fill="white"/>
<path d="M1264.17 417.822V408.41H1287.05V417.822H1282.84V411.79H1277.17V427H1273.01V411.79H1268.38V417.822H1264.17ZM1296.38 427.13C1294.06 427.13 1292.25 426.558 1290.95 425.414C1289.65 424.253 1289 422.554 1289 420.318C1289 418.065 1289.65 416.366 1290.95 415.222C1292.25 414.061 1294.06 413.48 1296.38 413.48H1302.88C1304.41 413.48 1305.57 413.844 1306.36 414.572C1307.18 415.283 1307.59 416.305 1307.59 417.64C1307.59 420.361 1306.02 421.722 1302.88 421.722H1293.05C1293.42 423.334 1294.53 424.14 1296.38 424.14H1306.91V427.13H1296.38ZM1296.38 416.47C1294.6 416.47 1293.49 417.224 1293.08 418.732H1302.7C1303.05 418.732 1303.31 418.628 1303.5 418.42C1303.71 418.212 1303.82 417.926 1303.82 417.562C1303.82 416.834 1303.44 416.47 1302.7 416.47H1296.38ZM1313.37 427C1311.96 427 1310.89 426.645 1310.14 425.934C1309.4 425.223 1309.02 424.209 1309.02 422.892C1309.02 421.592 1309.4 420.587 1310.14 419.876C1310.89 419.165 1311.96 418.81 1313.37 418.81H1323.35V418.186C1323.35 417.129 1322.83 416.6 1321.79 416.6H1310.77V413.61H1322.78C1324.36 413.61 1325.47 413.974 1326.13 414.702C1326.79 415.413 1327.12 416.418 1327.12 417.718V427H1313.37ZM1314.04 424.01H1323.35V421.8H1314.04C1313.71 421.8 1313.45 421.904 1313.26 422.112C1313.09 422.303 1313 422.563 1313 422.892C1313 423.221 1313.09 423.49 1313.26 423.698C1313.45 423.906 1313.71 424.01 1314.04 424.01ZM1329.86 427V413.61H1347.21C1348.73 413.61 1349.85 413.991 1350.56 414.754C1351.27 415.499 1351.63 416.487 1351.63 417.718V427H1347.86V418.186C1347.86 417.129 1347.32 416.6 1346.24 416.6H1342.63V427H1338.86V416.6H1333.63V427H1329.86Z" fill="white"/>
<path d="M1202 554.5V553.5H1201.78L1201.59 553.589L1202 554.5ZM1540.21 555.207C1540.6 554.817 1540.6 554.183 1540.21 553.793L1533.84 547.429C1533.45 547.038 1532.82 547.038 1532.43 547.429C1532.04 547.819 1532.04 548.453 1532.43 548.843L1538.09 554.5L1532.43 560.157C1532.04 560.547 1532.04 561.181 1532.43 561.571C1532.82 561.962 1533.45 561.962 1533.84 561.571L1540.21 555.207ZM1022.91 636.411L1202.41 555.411L1201.59 553.589L1022.09 634.589L1022.91 636.411ZM1202 555.5H1539.5V553.5H1202V555.5Z" fill="#7DF9FF"/>
<path d="M1589.71 716.707C1590.1 716.317 1590.1 715.683 1589.71 715.293L1583.34 708.929C1582.95 708.538 1582.32 708.538 1581.93 708.929C1581.54 709.319 1581.54 709.953 1581.93 710.343L1587.59 716L1581.93 721.657C1581.54 722.047 1581.54 722.681 1581.93 723.071C1582.32 723.462 1582.95 723.462 1583.34 723.071L1589.71 716.707ZM981.5 717H1142.5V715H981.5V717ZM1142.5 717H1589V715H1142.5V717Z" fill="#7DF9FF"/>
<path d="M1348.82 531V512.41H1352.3L1360.91 518.442H1361.04L1369.65 512.41H1373.13V531H1368.97V517.61L1363.07 521.562V531H1358.91V521.562L1352.98 517.61V531H1348.82ZM1379.82 531C1378.42 531 1377.34 530.645 1376.6 529.934C1375.85 529.223 1375.48 528.209 1375.48 526.892C1375.48 525.592 1375.85 524.587 1376.6 523.876C1377.34 523.165 1378.42 522.81 1379.82 522.81H1389.81V522.186C1389.81 521.129 1389.29 520.6 1388.25 520.6H1377.22V517.61H1389.23C1390.81 517.61 1391.93 517.974 1392.59 518.702C1393.25 519.413 1393.58 520.418 1393.58 521.718V531H1379.82ZM1380.5 528.01H1389.81V525.8H1380.5C1380.17 525.8 1379.91 525.904 1379.72 526.112C1379.54 526.303 1379.46 526.563 1379.46 526.892C1379.46 527.221 1379.54 527.49 1379.72 527.698C1379.91 527.906 1380.17 528.01 1380.5 528.01ZM1396.32 531V517.61H1406.56C1408.07 517.61 1409.18 517.991 1409.89 518.754C1410.6 519.499 1410.96 520.487 1410.96 521.718V524.5H1407.13V522.186C1407.13 521.146 1406.61 520.626 1405.57 520.626H1400.14V531H1396.32ZM1412.9 531V512.41H1416.67V517.61H1425.67C1427.19 517.61 1428.35 517.974 1429.15 518.702C1429.96 519.413 1430.37 520.435 1430.37 521.77C1430.37 523.954 1429.33 525.254 1427.25 525.67L1430.42 531H1426.19L1423.12 525.826H1416.67V531H1412.9ZM1425.48 520.574H1416.67V522.862H1425.48C1425.83 522.862 1426.1 522.758 1426.29 522.55C1426.5 522.342 1426.6 522.056 1426.6 521.692C1426.6 520.947 1426.23 520.574 1425.48 520.574ZM1439.24 531.13C1436.92 531.13 1435.11 530.558 1433.81 529.414C1432.51 528.253 1431.86 526.554 1431.86 524.318C1431.86 522.065 1432.51 520.366 1433.81 519.222C1435.11 518.061 1436.92 517.48 1439.24 517.48H1445.74C1447.26 517.48 1448.43 517.844 1449.22 518.572C1450.04 519.283 1450.45 520.305 1450.45 521.64C1450.45 524.361 1448.88 525.722 1445.74 525.722H1435.91C1436.28 527.334 1437.38 528.14 1439.24 528.14H1449.77V531.13H1439.24ZM1439.24 520.47C1437.45 520.47 1436.35 521.224 1435.94 522.732H1445.56C1445.9 522.732 1446.17 522.628 1446.36 522.42C1446.57 522.212 1446.68 521.926 1446.68 521.562C1446.68 520.834 1446.3 520.47 1445.56 520.47H1439.24ZM1460.14 531C1458.63 531 1457.52 530.627 1456.81 529.882C1456.1 529.119 1455.75 528.123 1455.75 526.892V520.6H1451.87V517.61H1455.75V513.502H1459.52V517.61H1465.08V520.6H1459.52V526.424C1459.52 527.481 1460.04 528.01 1461.08 528.01H1465.81V531H1460.14ZM1467.62 531V517.61H1471.39V531H1467.62ZM1467.59 515.4V512.462H1471.42V515.4H1467.59ZM1474.12 531V517.61H1485.79C1487.32 517.61 1488.43 517.991 1489.12 518.754C1489.83 519.499 1490.19 520.487 1490.19 521.718V531H1486.42V522.16C1486.42 521.12 1485.9 520.6 1484.86 520.6H1477.89V531H1474.12ZM1495.96 536.85V533.86H1503.81C1504.85 533.86 1505.37 533.331 1505.37 532.274V531H1499.65C1497.32 531 1495.51 530.428 1494.21 529.284C1492.91 528.14 1492.26 526.485 1492.26 524.318C1492.26 522.134 1492.91 520.47 1494.21 519.326C1495.51 518.182 1497.32 517.61 1499.65 517.61H1509.14V532.742C1509.14 533.973 1508.78 534.961 1508.07 535.706C1507.36 536.469 1506.25 536.85 1504.74 536.85H1495.96ZM1499.65 528.01H1505.37V520.6H1499.65C1498.52 520.6 1497.65 520.912 1497.05 521.536C1496.46 522.143 1496.16 523.07 1496.16 524.318C1496.16 525.549 1496.46 526.476 1497.05 527.1C1497.65 527.707 1498.52 528.01 1499.65 528.01Z" fill="white"/>
<path d="M1198.82 693V674.41H1214.39C1216.32 674.41 1217.81 674.895 1218.87 675.866C1219.94 676.837 1220.48 678.31 1220.48 680.286C1220.48 682.262 1219.94 683.735 1218.87 684.706C1217.81 685.677 1216.32 686.162 1214.39 686.162H1202.98V693H1198.82ZM1213.9 677.79H1202.98V682.756L1213.9 682.782C1214.66 682.782 1215.24 682.591 1215.64 682.21C1216.06 681.829 1216.27 681.187 1216.27 680.286C1216.27 679.367 1216.06 678.726 1215.64 678.362C1215.24 677.981 1214.66 677.79 1213.9 677.79ZM1226.11 693C1224.71 693 1223.64 692.645 1222.89 691.934C1222.14 691.223 1221.77 690.209 1221.77 688.892C1221.77 687.592 1222.14 686.587 1222.89 685.876C1223.64 685.165 1224.71 684.81 1226.11 684.81H1236.1V684.186C1236.1 683.129 1235.58 682.6 1234.54 682.6H1223.51V679.61H1235.53C1237.1 679.61 1238.22 679.974 1238.88 680.702C1239.54 681.413 1239.87 682.418 1239.87 683.718V693H1226.11ZM1226.79 690.01H1236.1V687.8H1226.79C1226.46 687.8 1226.2 687.904 1226.01 688.112C1225.84 688.303 1225.75 688.563 1225.75 688.892C1225.75 689.221 1225.84 689.49 1226.01 689.698C1226.2 689.906 1226.46 690.01 1226.79 690.01ZM1242.61 693V679.61H1252.86C1254.36 679.61 1255.47 679.991 1256.18 680.754C1256.89 681.499 1257.25 682.487 1257.25 683.718V686.5H1253.43V684.186C1253.43 683.146 1252.91 682.626 1251.87 682.626H1246.43V693H1242.61ZM1266.16 693C1264.65 693 1263.54 692.627 1262.83 691.882C1262.12 691.119 1261.77 690.123 1261.77 688.892V682.6H1257.89V679.61H1261.77V675.502H1265.54V679.61H1271.1V682.6H1265.54V688.424C1265.54 689.481 1266.06 690.01 1267.1 690.01H1271.83V693H1266.16ZM1273.64 693V679.61H1285.31C1286.84 679.61 1287.95 679.991 1288.64 680.754C1289.35 681.499 1289.71 682.487 1289.71 683.718V693H1285.94V684.16C1285.94 683.12 1285.42 682.6 1284.38 682.6H1277.41V693H1273.64ZM1299.17 693.13C1296.85 693.13 1295.03 692.558 1293.73 691.414C1292.43 690.253 1291.78 688.554 1291.78 686.318C1291.78 684.065 1292.43 682.366 1293.73 681.222C1295.03 680.061 1296.85 679.48 1299.17 679.48H1305.67C1307.19 679.48 1308.35 679.844 1309.15 680.572C1309.97 681.283 1310.37 682.305 1310.37 683.64C1310.37 686.361 1308.81 687.722 1305.67 687.722H1295.84C1296.2 689.334 1297.31 690.14 1299.17 690.14H1309.7V693.13H1299.17ZM1299.17 682.47C1297.38 682.47 1296.28 683.224 1295.87 684.732H1305.49C1305.83 684.732 1306.1 684.628 1306.29 684.42C1306.5 684.212 1306.6 683.926 1306.6 683.562C1306.6 682.834 1306.23 682.47 1305.49 682.47H1299.17ZM1312.59 693V679.61H1322.84C1324.34 679.61 1325.45 679.991 1326.16 680.754C1326.87 681.499 1327.23 682.487 1327.23 683.718V686.5H1323.41V684.186C1323.41 683.146 1322.89 682.626 1321.85 682.626H1316.41V693H1312.59ZM1328.73 693.13V690.14H1341.47C1342.2 690.14 1342.56 689.733 1342.56 688.918C1342.56 688.121 1342.2 687.722 1341.47 687.722H1333.23C1331.69 687.722 1330.52 687.375 1329.72 686.682C1328.92 685.971 1328.52 684.957 1328.52 683.64C1328.52 682.305 1328.92 681.283 1329.72 680.572C1330.53 679.844 1331.7 679.48 1333.23 679.48H1345.08V682.47H1333.41C1332.67 682.47 1332.29 682.834 1332.29 683.562C1332.29 683.926 1332.4 684.212 1332.6 684.42C1332.81 684.628 1333.08 684.732 1333.41 684.732H1342.15C1343.5 684.732 1344.53 685.087 1345.24 685.798C1345.97 686.491 1346.33 687.505 1346.33 688.84C1346.33 690.192 1345.97 691.249 1345.24 692.012C1344.51 692.757 1343.48 693.13 1342.15 693.13H1328.73ZM1348.42 693V674.41H1352.19V679.61H1360.09C1361.62 679.61 1362.73 679.991 1363.42 680.754C1364.13 681.499 1364.49 682.487 1364.49 683.718V693H1360.72V684.16C1360.72 683.12 1360.2 682.6 1359.16 682.6H1352.19V693H1348.42ZM1367.08 693V679.61H1370.85V693H1367.08ZM1367.06 677.4V674.462H1370.88V677.4H1367.06ZM1373.58 698.85V679.61H1383.2C1385.53 679.61 1387.34 680.182 1388.64 681.326C1389.94 682.47 1390.59 684.125 1390.59 686.292C1390.59 688.476 1389.94 690.14 1388.64 691.284C1387.34 692.428 1385.53 693 1383.2 693H1377.35V698.85H1373.58ZM1383.2 682.6H1377.35V690.01H1383.2C1384.33 690.01 1385.19 689.707 1385.78 689.1C1386.38 688.476 1386.69 687.54 1386.69 686.292C1386.69 685.061 1386.38 684.143 1385.78 683.536C1385.19 682.912 1384.33 682.6 1383.2 682.6ZM1393.2 698.018V673.682H1400.27V676.412H1396.32V695.288H1400.27V698.018H1393.2ZM1414.92 693C1413.86 693 1412.98 692.818 1412.27 692.454C1411.56 692.09 1411.02 691.613 1410.65 691.024C1410.31 690.435 1410.13 689.793 1410.13 689.1C1410.13 688.493 1410.27 687.878 1410.55 687.254C1410.83 686.613 1411.23 686.023 1411.77 685.486L1416.09 681.17C1415.88 680.893 1415.72 680.581 1415.59 680.234C1415.47 679.887 1415.41 679.489 1415.41 679.038C1415.41 678.275 1415.62 677.539 1416.04 676.828C1416.47 676.117 1417.1 675.537 1417.93 675.086C1418.78 674.635 1419.81 674.41 1421.03 674.41H1424.9C1426.7 674.41 1428.09 674.904 1429.06 675.892C1430.03 676.88 1430.52 678.197 1430.52 679.844H1426.23C1426.23 678.475 1425.52 677.79 1424.1 677.79H1421.91C1421.27 677.79 1420.8 677.937 1420.51 678.232C1420.21 678.509 1420.07 678.83 1420.07 679.194C1420.07 679.402 1420.12 679.619 1420.22 679.844C1420.34 680.069 1420.52 680.277 1420.74 680.468L1426.7 685.486L1430.21 681.976H1435.56L1429.58 687.93L1435.56 693H1429.69L1426.9 690.608L1424.49 693H1414.92ZM1415.96 689.62H1422.56L1424.04 688.138L1418.9 683.692L1415.07 687.488C1414.9 687.644 1414.78 687.809 1414.71 687.982C1414.64 688.155 1414.61 688.329 1414.61 688.502C1414.61 688.797 1414.72 689.057 1414.94 689.282C1415.19 689.507 1415.52 689.62 1415.96 689.62ZM1455.8 693.13C1452.62 693.13 1450.15 692.341 1448.36 690.764C1446.59 689.169 1445.71 686.812 1445.71 683.692C1445.71 680.589 1446.61 678.249 1448.41 676.672C1450.23 675.077 1452.87 674.28 1456.32 674.28H1466.2V677.66H1456.6C1454.33 677.66 1452.65 678.137 1451.56 679.09C1450.48 680.043 1449.95 681.577 1449.95 683.692C1449.95 685.703 1450.42 687.193 1451.38 688.164C1452.33 689.117 1453.73 689.637 1455.56 689.724V682.496H1467.21V693.13H1455.8ZM1459.46 689.75H1463.05V685.876H1459.46V689.75ZM1470.33 693V679.61H1480.57C1482.08 679.61 1483.19 679.991 1483.9 680.754C1484.61 681.499 1484.97 682.487 1484.97 683.718V686.5H1481.14V684.186C1481.14 683.146 1480.62 682.626 1479.58 682.626H1474.15V693H1470.33ZM1494.28 693.13C1491.96 693.13 1490.15 692.558 1488.85 691.414C1487.55 690.253 1486.9 688.554 1486.9 686.318C1486.9 684.065 1487.55 682.366 1488.85 681.222C1490.15 680.061 1491.96 679.48 1494.28 679.48H1499.09C1501.41 679.48 1503.22 680.061 1504.52 681.222C1505.82 682.366 1506.47 684.065 1506.47 686.318C1506.47 688.554 1505.82 690.253 1504.52 691.414C1503.22 692.558 1501.41 693.13 1499.09 693.13H1494.28ZM1494.28 690.14H1499.09C1500.22 690.14 1501.08 689.828 1501.66 689.204C1502.27 688.58 1502.57 687.618 1502.57 686.318C1502.57 685.001 1502.27 684.03 1501.66 683.406C1501.08 682.782 1500.22 682.47 1499.09 682.47H1494.28C1493.15 682.47 1492.29 682.782 1491.68 683.406C1491.09 684.03 1490.8 685.001 1490.8 686.318C1490.8 687.618 1491.09 688.58 1491.68 689.204C1492.29 689.828 1493.15 690.14 1494.28 690.14ZM1509.32 693L1508.05 679.61H1511.84L1512.73 689.776L1516.76 687.956V679.61H1520.53V687.982L1524.56 689.776L1525.44 679.61H1529.24L1527.96 693H1524.4L1518.63 690.452L1512.88 693H1509.32ZM1538.29 693C1536.78 693 1535.67 692.627 1534.96 691.882C1534.25 691.119 1533.89 690.123 1533.89 688.892V682.6H1530.02V679.61H1533.89V675.502H1537.66V679.61H1543.23V682.6H1537.66V688.424C1537.66 689.481 1538.18 690.01 1539.22 690.01H1543.96V693H1538.29ZM1545.77 693V674.41H1549.54V679.61H1557.44C1558.97 679.61 1560.08 679.991 1560.77 680.754C1561.48 681.499 1561.84 682.487 1561.84 683.718V693H1558.07V684.16C1558.07 683.12 1557.55 682.6 1556.51 682.6H1549.54V693H1545.77Z" fill="white"/>
<path d="M1274.26 859L1282.63 840.41H1289.05L1297.43 859H1292.9L1291.13 855.074H1280.55L1278.78 859H1274.26ZM1282.06 851.694H1289.63L1286.01 843.66H1285.67L1282.06 851.694ZM1314.69 859H1310.92V840.41H1314.69V859ZM1314.04 859H1305.07C1302.75 859 1300.94 858.428 1299.64 857.284C1298.34 856.14 1297.69 854.485 1297.69 852.318C1297.69 850.134 1298.34 848.47 1299.64 847.326C1300.94 846.182 1302.75 845.61 1305.07 845.61H1313.78V848.6H1305.07C1303.94 848.6 1303.08 848.912 1302.47 849.536C1301.88 850.143 1301.59 851.07 1301.59 852.318C1301.59 853.549 1301.88 854.476 1302.47 855.1C1303.08 855.707 1303.94 856.01 1305.07 856.01H1314.04V859ZM1321.9 859L1316.26 845.61H1320.21L1324.58 855.984H1325.88L1330.25 845.61H1334.2L1328.56 859H1321.9ZM1335.76 859V845.61H1339.53V859H1335.76ZM1335.73 843.4V840.462H1339.56V843.4H1335.73ZM1341.82 859.13V856.14H1354.56C1355.29 856.14 1355.65 855.733 1355.65 854.918C1355.65 854.121 1355.29 853.722 1354.56 853.722H1346.32C1344.78 853.722 1343.61 853.375 1342.81 852.682C1342.01 851.971 1341.61 850.957 1341.61 849.64C1341.61 848.305 1342.01 847.283 1342.81 846.572C1343.62 845.844 1344.79 845.48 1346.32 845.48H1358.17V848.47H1346.5C1345.75 848.47 1345.38 848.834 1345.38 849.562C1345.38 849.926 1345.49 850.212 1345.69 850.42C1345.9 850.628 1346.17 850.732 1346.5 850.732H1355.24C1356.59 850.732 1357.62 851.087 1358.33 851.798C1359.06 852.491 1359.42 853.505 1359.42 854.84C1359.42 856.192 1359.06 857.249 1358.33 858.012C1357.6 858.757 1356.57 859.13 1355.24 859.13H1341.82ZM1368.37 859.13C1366.05 859.13 1364.24 858.558 1362.94 857.414C1361.64 856.253 1360.99 854.554 1360.99 852.318C1360.99 850.065 1361.64 848.366 1362.94 847.222C1364.24 846.061 1366.05 845.48 1368.37 845.48H1374.87C1376.4 845.48 1377.56 845.844 1378.36 846.572C1379.17 847.283 1379.58 848.305 1379.58 849.64C1379.58 852.361 1378.01 853.722 1374.87 853.722H1365.04C1365.41 855.334 1366.52 856.14 1368.37 856.14H1378.9V859.13H1368.37ZM1368.37 848.47C1366.59 848.47 1365.49 849.224 1365.07 850.732H1374.69C1375.04 850.732 1375.31 850.628 1375.5 850.42C1375.7 850.212 1375.81 849.926 1375.81 849.562C1375.81 848.834 1375.44 848.47 1374.69 848.47H1368.37ZM1381.8 859V845.61H1392.04C1393.55 845.61 1394.66 845.991 1395.37 846.754C1396.08 847.499 1396.44 848.487 1396.44 849.718V852.5H1392.61V850.186C1392.61 849.146 1392.09 848.626 1391.05 848.626H1385.62V859H1381.8Z" fill="white"/>
<path d="M1144.22 1230.13V1226.75L1159.17 1226.78C1159.93 1226.78 1160.52 1226.6 1160.91 1226.26C1161.33 1225.89 1161.54 1225.31 1161.54 1224.51C1161.54 1223.72 1161.33 1223.14 1160.91 1222.8C1160.52 1222.43 1159.93 1222.25 1159.17 1222.25H1149.86C1147.94 1222.25 1146.44 1221.79 1145.37 1220.87C1144.31 1219.94 1143.78 1218.57 1143.78 1216.77C1143.78 1214.96 1144.31 1213.6 1145.37 1212.68C1146.44 1211.75 1147.94 1211.28 1149.86 1211.28H1164.48V1214.66L1150.31 1214.63C1149.56 1214.63 1148.98 1214.81 1148.56 1215.15C1148.15 1215.48 1147.94 1216.02 1147.94 1216.77C1147.94 1217.51 1148.15 1218.06 1148.56 1218.4C1148.98 1218.73 1149.56 1218.9 1150.31 1218.9H1159.61C1161.54 1218.9 1163.03 1219.37 1164.09 1220.33C1165.16 1221.26 1165.7 1222.66 1165.7 1224.51C1165.7 1226.35 1165.16 1227.75 1164.09 1228.7C1163.03 1229.65 1161.54 1230.13 1159.61 1230.13H1144.22ZM1174.76 1230C1173.25 1230 1172.14 1229.63 1171.43 1228.88C1170.72 1228.12 1170.36 1227.12 1170.36 1225.89V1219.6H1166.49V1216.61H1170.36V1212.5H1174.13V1216.61H1179.7V1219.6H1174.13V1225.42C1174.13 1226.48 1174.65 1227.01 1175.69 1227.01H1180.43V1230H1174.76ZM1185.8 1230C1184.4 1230 1183.32 1229.64 1182.58 1228.93C1181.83 1228.22 1181.46 1227.21 1181.46 1225.89C1181.46 1224.59 1181.83 1223.59 1182.58 1222.88C1183.32 1222.17 1184.4 1221.81 1185.8 1221.81H1195.78V1221.19C1195.78 1220.13 1195.26 1219.6 1194.22 1219.6H1183.2V1216.61H1195.21C1196.79 1216.61 1197.91 1216.97 1198.57 1217.7C1199.23 1218.41 1199.55 1219.42 1199.55 1220.72V1230H1185.8ZM1186.48 1227.01H1195.78V1224.8H1186.48C1186.15 1224.8 1185.89 1224.9 1185.7 1225.11C1185.52 1225.3 1185.44 1225.56 1185.44 1225.89C1185.44 1226.22 1185.52 1226.49 1185.7 1226.7C1185.89 1226.91 1186.15 1227.01 1186.48 1227.01ZM1202.3 1230V1211.41H1206.07V1216.61H1215.06C1216.59 1216.61 1217.75 1216.97 1218.55 1217.7C1219.36 1218.41 1219.77 1219.44 1219.77 1220.77C1219.77 1222.95 1218.73 1224.25 1216.65 1224.67L1219.82 1230H1215.58L1212.52 1224.83H1206.07V1230H1202.3ZM1214.88 1219.57H1206.07V1221.86H1214.88C1215.23 1221.86 1215.5 1221.76 1215.69 1221.55C1215.9 1221.34 1216 1221.06 1216 1220.69C1216 1219.95 1215.63 1219.57 1214.88 1219.57ZM1222.03 1230V1216.61H1225.8V1230H1222.03ZM1222 1214.4V1211.46H1225.82V1214.4H1222ZM1228.53 1230V1216.61H1240.2C1241.73 1216.61 1242.84 1216.99 1243.53 1217.75C1244.24 1218.5 1244.6 1219.49 1244.6 1220.72V1230H1240.83V1221.16C1240.83 1220.12 1240.31 1219.6 1239.27 1219.6H1232.3V1230H1228.53ZM1250.36 1235.85V1232.86H1258.22C1259.26 1232.86 1259.78 1232.33 1259.78 1231.27V1230H1254.06C1251.73 1230 1249.92 1229.43 1248.62 1228.28C1247.32 1227.14 1246.67 1225.48 1246.67 1223.32C1246.67 1221.13 1247.32 1219.47 1248.62 1218.33C1249.92 1217.18 1251.73 1216.61 1254.06 1216.61H1263.55V1231.74C1263.55 1232.97 1263.19 1233.96 1262.48 1234.71C1261.77 1235.47 1260.66 1235.85 1259.15 1235.85H1250.36ZM1254.06 1227.01H1259.78V1219.6H1254.06C1252.93 1219.6 1252.06 1219.91 1251.46 1220.54C1250.87 1221.14 1250.57 1222.07 1250.57 1223.32C1250.57 1224.55 1250.87 1225.48 1251.46 1226.1C1252.06 1226.71 1252.93 1227.01 1254.06 1227.01Z" fill="white"/>
<path d="M515.774 846.636C490.994 799.33 478 746.741 477.895 693.338C477.79 639.935 490.576 587.296 515.169 539.892L757.889 665.813C753.564 674.15 751.315 683.407 751.333 692.799C751.352 702.191 753.637 711.439 757.995 719.759L515.774 846.636Z" fill="#6CABCA"/>
<path d="M724.828 1013.44C680.225 1001.64 638.574 980.667 602.534 951.862C566.494 923.057 536.857 887.052 515.518 846.146L757.95 719.673C761.703 726.867 766.915 733.199 773.253 738.265C779.591 743.331 786.917 747.019 794.761 749.094L724.828 1013.44Z" fill="#1DFFF1"/>
<path d="M930.789 1001.58C864.559 1027.55 791.736 1031.54 723.064 1012.97L794.45 749.011C806.528 752.277 819.335 751.575 830.982 747.009L930.789 1001.58Z" fill="#C4B99E"/>
<path d="M1076.41 495.351C1111.46 542.723 1133.26 598.574 1139.57 657.162L867.699 686.437C866.59 676.133 862.756 666.311 856.593 657.98L1076.41 495.351Z" fill="#09D6B4"/>
<path d="M1139.27 654.522C1144.68 701.258 1140.09 748.61 1125.81 793.436L865.279 710.403C867.792 702.52 868.599 694.192 867.647 685.973L1139.27 654.522Z" fill="#8F2011"/>
<path d="M1125.78 793.52C1116.36 823.063 1102.84 851.138 1085.62 876.927L858.211 725.086C861.24 720.551 863.617 715.613 865.275 710.418L1125.78 793.52Z" fill="#6370DD"/>
<path d="M1125.78 793.52C1116.36 823.063 1102.84 851.138 1085.62 876.927L858.211 725.086C861.24 720.551 863.617 715.613 865.275 710.418L1125.78 793.52Z" fill="#6370DD"/>
<path d="M1125.78 793.52C1116.36 823.063 1102.84 851.138 1085.62 876.927L858.211 725.086C861.24 720.551 863.617 715.613 865.275 710.418L1125.78 793.52Z" fill="#6370DD"/>
<path d="M1085.36 877.309C1074.39 893.697 1061.97 909.074 1048.26 923.257L851.642 733.234C854.053 730.74 856.236 728.036 858.166 725.153L1085.36 877.309Z" fill="#C89CFF"/>
<path d="M1085.36 877.309C1074.39 893.697 1061.97 909.074 1048.26 923.257L851.642 733.234C854.053 730.74 856.236 728.036 858.166 725.153L1085.36 877.309Z" fill="#C89CFF"/>
<path d="M1048.89 922.612C1035.22 936.832 1020.31 949.804 1004.34 961.375L843.917 739.938C846.726 737.903 849.348 735.621 851.752 733.121L1048.89 922.612Z" fill="#C89CFF"/>
<path d="M1048.89 922.612C1035.22 936.832 1020.31 949.804 1004.34 961.375L843.917 739.938C846.726 737.903 849.348 735.621 851.752 733.121L1048.89 922.612Z" fill="#FFC83A"/>
<path d="M1048.89 922.612C1035.22 936.832 1020.31 949.804 1004.34 961.375L843.917 739.938C846.726 737.903 849.348 735.621 851.752 733.121L1048.89 922.612Z" fill="#FFC83A"/>
<path d="M1004.73 961.092C981.192 978.194 955.511 992.125 928.344 1002.53L830.552 747.175C835.33 745.346 839.847 742.896 843.985 739.888L1004.73 961.092Z" fill="#C89CFF"/>
<path d="M1004.73 961.092C981.192 978.194 955.511 992.125 928.344 1002.53L830.552 747.175C835.33 745.346 839.847 742.896 843.985 739.888L1004.73 961.092Z" fill="#FFC83A"/>
<path d="M1004.73 961.092C981.192 978.194 955.511 992.125 928.344 1002.53L830.552 747.175C835.33 745.346 839.847 742.896 843.985 739.888L1004.73 961.092Z" fill="#FF835C"/>
<path d="M958.248 396.014C1005.22 419.538 1045.94 453.88 1077.05 496.215L856.705 658.132C851.234 650.687 844.073 644.647 835.811 640.51L958.248 396.014Z" fill="#54ED88"/>
<path d="M806.013 360.915C859.65 360.321 912.632 372.741 960.417 397.11L836.193 640.703C827.789 636.417 818.471 634.233 809.038 634.337L806.013 360.915Z" fill="#00B4CD"/>
<path d="M513.412 543.328C541.029 488.545 583.295 442.492 635.513 410.286C687.731 378.08 747.856 360.983 809.207 360.895L809.6 634.333C798.81 634.349 788.236 637.356 779.053 643.02C769.87 648.684 762.437 656.783 757.58 666.417L513.412 543.328Z" fill="#4277FF"/>
<defs>
<filter id="filter0_f_380_373" x="142.9" y="0.899994" width="1352.2" height="1352.2" filterUnits="userSpaceOnUse" color-interpolation-filters="sRGB">
<feFlood flood-opacity="0" result="BackgroundImageFix"/>
<feBlend mode="normal" in="SourceGraphic" in2="BackgroundImageFix" result="shape"/>
<feGaussianBlur stdDeviation="158.55" result="effect1_foregroundBlur_380_373"/>
</filter>
</defs>
</svg>
